<?xml version="1.0" encoding="UTF-8" standalone="no"?>
<svg width="24px" height="24px" viewBox="0 0 24 24" version="1.1" xmlns="http://www.w3.org/2000/svg" xmlns:xlink="http://www.w3.org/1999/xlink" xmlns:sketch="http://www.bohemiancoding.com/sketch/ns">
    <!-- Generator: Sketch 3.4.4 (17249) - http://www.bohemiancoding.com/sketch -->
    <title>facebook</title>
    <desc>Created with Sketch.</desc>
    <defs></defs>
    <g id="Page-1" stroke="none" stroke-width="1" fill="none" fill-rule="evenodd" sketch:type="MSPage">
        <g id="facebook-" sketch:type="MSLayerGroup" fill="#FFFFFF">
            <path d="M3.9995625,0 C1.79057812,0 0,1.79109375 0,4.00045312 L0,19.9995938 C0,22.2089531 1.79057812,24 3.9995625,24 L12,24 L12,13.5 L9,13.5 L9,10.5 L12,10.5 L12,8.25 C12,6.17892188 13.6789219,4.5 15.75,4.5 L19.5,4.5 L19.5,7.5 L15.75,7.5 C15.3357656,7.5 15,7.8358125 15,8.25 L15,10.5 L19.125,10.5 L18.375,13.5 L15,13.5 L15,24 L20.0003906,24 C22.209375,24 24,22.2089531 24,19.9995938 L24,4.00045313 C24,1.79109375 22.209375,6.66133815e-16 20.0003906,6.66133815e-16 L3.9995625,0 Z" id="facebook" sketch:type="MSShapeGroup"></path>
        </g>
    </g>
</svg>