<?xml version="1.0" encoding="UTF-8" standalone="no"?>
<svg width="24px" height="24px" viewBox="0 0 24 24" version="1.1" xmlns="http://www.w3.org/2000/svg" xmlns:xlink="http://www.w3.org/1999/xlink" xmlns:sketch="http://www.bohemiancoding.com/sketch/ns">
    <!-- Generator: Sketch 3.4.4 (17249) - http://www.bohemiancoding.com/sketch -->
    <title>icon-zoomin</title>
    <desc>Created with Sketch.</desc>
    <defs></defs>
    <g id="Page-1" stroke="none" stroke-width="1" fill="none" fill-rule="evenodd" sketch:type="MSPage">
        <g id="zoom-in" sketch:type="MSLayerGroup" transform="translate(1.000000, 1.000000)" fill="#BBBBBB">
            <path d="M11,21 L11,21 C16.5228475,21 21,16.5228475 21,11 C21,5.4771525 16.5228475,1 11,1 C5.4771525,1 1,5.4771525 1,11 C1,16.5228475 5.4771525,21 11,21 L11,21 Z M11,22 L11,22 C4.92486775,22 0,17.0751322 0,11 C0,4.92486775 4.92486775,0 11,0 C17.0751322,0 22,4.92486775 22,11 C22,17.0751322 17.0751322,22 11,22 L11,22 Z" id="Shape" sketch:type="MSShapeGroup"></path>
            <path d="M16.9617225,11.929708 L16.9617225,10.0031917 L11.9538243,10.0031917 L11.9538243,5 L10.0365147,5 L10.0365147,10.0031917 L5,10.0031917 L5,11.929708 L10.0365147,11.929708 L10.0365147,16.9904077 L11.9538243,16.9904077 L11.9538243,11.929708 L16.9617225,11.929708 Z" id="+" sketch:type="MSShapeGroup" transform="translate(11.000000, 11.000000) rotate(-270.000000) translate(-11.000000, -11.000000) "></path>
        </g>
    </g>
</svg>