<?xml version="1.0" encoding="UTF-8" standalone="no"?>
<svg width="24px" height="24px" viewBox="0 0 24 24" version="1.1" xmlns="http://www.w3.org/2000/svg" xmlns:xlink="http://www.w3.org/1999/xlink" xmlns:sketch="http://www.bohemiancoding.com/sketch/ns">
    <!-- Generator: Sketch 3.4.4 (17249) - http://www.bohemiancoding.com/sketch -->
    <title>download</title>
    <desc>Created with Sketch.</desc>
    <defs></defs>
    <g id="Page-1" stroke="none" stroke-width="1" fill="none" fill-rule="evenodd" sketch:type="MSPage">
        <g id="download" sketch:type="MSLayerGroup" fill="#FFFFFF">
            <path d="M21.679777,15.8286574 L21.679777,21.7908167 L2.28209059,21.7908167 L2.28209059,15.8286574 C2.28209059,15.1847689 1.77123345,14.662739 1.1410453,14.662739 C0.510857143,14.662739 0,15.1847271 0,15.8286574 L0,23.9900438 L23.9618676,23.9900438 L23.9618676,15.8286574 C23.9618676,15.1847689 23.4510105,14.662739 22.8208223,14.662739 C22.1906341,14.662739 21.679777,15.1847271 21.679777,15.8286574 L21.679777,15.8286574 L21.679777,15.8286574 Z" id="Shape" sketch:type="MSShapeGroup"></path>
            <path d="M10.821115,14.2077669 L10.821115,4.16591833 C10.821115,3.52202988 11.3319721,3 11.9621603,3 C12.5923484,3 13.1032056,3.52198805 13.1032056,4.16591833 L13.1032056,14.2344143 L16.6038606,10.7218088 C17.0534634,10.2706434 17.7759303,10.2773367 18.2174634,10.7367849 C18.6589965,11.1962331 18.6524739,11.9344124 18.2027875,12.3855359 L11.983108,18.6264263 L11.2978537,17.9427131 C11.2036098,17.8736474 11.1200697,17.7902749 11.0503275,17.6957331 L5.76121254,12.4182908 C5.31031359,11.9684223 5.30178397,11.2302849 5.74206272,10.7695817 C6.18234146,10.3088785 6.90476655,10.3001355 7.35562369,10.7499622 L10.8210314,14.2077251 L10.821115,14.2077669 Z" id="Shape" sketch:type="MSShapeGroup"></path>
        </g>
    </g>
</svg>