<?xml version="1.0" encoding="utf-8"?>
<!-- Generator: Adobe Illustrator 21.0.0, SVG Export Plug-In . SVG Version: 6.00 Build 0)  -->
<svg version="1.1" id="圖層_1" xmlns:sketch="http://www.bohemiancoding.com/sketch/ns"
	 xmlns="http://www.w3.org/2000/svg" xmlns:xlink="http://www.w3.org/1999/xlink" x="0px" y="0px" viewBox="0 0 166 48"
	 style="enable-background:new 0 0 166 48;" xml:space="preserve">
<style type="text/css">
	.st0{fill-rule:evenodd;clip-rule:evenodd;fill:#FFE000;}
	.st1{fill:#FFE000;}
</style>
<title>logo-zh-mobile</title>
<desc>Created with Sketch.</desc>
<g id="XMLID_2039_">
	<path id="XMLID_2096_" class="st0" d="M61.2,38.8c-0.2-0.2-0.2-0.4-0.1-0.6c0.1-0.2,0.2-0.5,0.3-0.7c0.1-0.1,0.2-0.2,0.4-0.3
		c0.3-0.2,0.5-0.3,0.8-0.5c0.1-0.1,0.2-0.2,0.3-0.3c0.1-0.1,0.1-0.1,0.2-0.2c0.1,0,0.2-0.1,0.2-0.3c0-0.2,0.1-0.3,0.3-0.4
		c0.2-0.1,0.4-0.2,0.5-0.4c0-0.1,0.2-0.1,0.3-0.1c0.2,0,0.4,0,0.6-0.2c0,0,0.1-0.1,0.1-0.1c0.4-0.1,0.7-0.2,1.1-0.3
		c0.1,0,0.2-0.1,0.2-0.2c0.1-0.1,0.2-0.2,0.3-0.3c0.2-0.1,0.4-0.2,0.7-0.4c0.1-0.1,0.2-0.2,0.4-0.2c0.1-0.1,0.2-0.1,0.3-0.2
		c0.2,0,0.3-0.1,0.4-0.3c0,0,0.1-0.1,0.1-0.1c0.2,0,0.3-0.1,0.5-0.3c0.1-0.1,0.3-0.2,0.5-0.3c0.3-0.2,0.6-0.4,0.9-0.6
		c0.2-0.1,0.4-0.3,0.5-0.4c0.3-0.3,0.6-0.3,0.9-0.4c0.1-0.1,0.2-0.1,0.3-0.2c0-0.1,0.1-0.1,0.1-0.1c0.1-0.1,0.3-0.2,0.3-0.3
		c0.2-0.2,0.4-0.3,0.6-0.4c0.2-0.1,0.4-0.2,0.7-0.3c0,0,0.1,0,0.1-0.1c0.1-0.2,0.3-0.4,0.6-0.5c0.2-0.1,0.1-0.2,0-0.3
		c0,0-0.1,0-0.1-0.1c-0.5-0.1-0.7-0.4-1-0.8c-0.2-0.3-0.5-0.5-0.7-0.7c-0.1-0.1-0.2-0.2-0.3-0.2c-0.1-0.1-0.3-0.2-0.4-0.3
		c-0.1,0-0.1-0.1-0.2-0.1c-0.1-0.2-0.2-0.2-0.4-0.2c-0.1,0-0.2,0-0.3,0.1c-0.4,0.2-0.8,0.4-1.1,0.8c-0.1,0.1-0.2,0.2-0.4,0.3
		c-0.2-0.1-0.4-0.3-0.4-0.6c0-0.2-0.1-0.3-0.3-0.3c-0.1,0-0.3,0-0.4,0c-0.2,0-0.3,0-0.4,0c-0.3-0.1-0.5-0.1-0.7,0.1
		c-0.2,0.2-0.4,0.3-0.6,0.5c-0.3,0.1-0.6,0.3-0.7,0.6c-0.3,0.1-0.5,0.3-0.8,0.5c-0.1,0.1-0.3,0.1-0.4,0.1c-0.2,0-0.4,0.1-0.5,0.3
		c0,0.1-0.1,0.1-0.2,0.1c-0.1,0-0.2,0.1-0.3,0.2c0,0.1-0.1,0.2-0.2,0.2c-0.2,0.1-0.4,0.2-0.6,0.3c-0.1,0-0.2,0.1-0.3,0.2
		c-0.2,0.2-0.4,0.4-0.6,0.6c-0.1,0.1-0.2,0.2-0.4,0.2c-0.1,0-0.2,0-0.2,0c-0.3,0.1-0.5,0-0.7-0.1c-0.1-0.1-0.3-0.1-0.5-0.1
		c-0.1,0-0.3,0-0.3-0.2c-0.1-0.2-0.2-0.4-0.3-0.6c-0.2-0.2-0.4-0.4-0.6-0.6c-0.2-0.2-0.4-0.3-0.5-0.5c-0.1-0.1-0.1-0.2-0.1-0.3
		c-0.1-0.2-0.1-0.5-0.2-0.7c0-0.1-0.1-0.1,0-0.2c0.1-0.3,0-0.5,0-0.8c0-0.1,0.1-0.2,0.1-0.2c0.4-0.2,0.9-0.4,1.4-0.3
		c0.1,0,0.2,0,0.2,0c0.4,0.2,1,0.1,1.3-0.3c0.1-0.1,0.1-0.3,0-0.4c-0.2-0.2-0.2-0.4,0-0.6c0,0,0-0.1,0-0.2c0-0.2,0-0.4,0-0.7
		c-0.3-0.1-0.3-0.4-0.2-0.7c0-0.1,0-0.3-0.1-0.4c0-0.1-0.1-0.2-0.1-0.4c0-0.1,0-0.1,0-0.2c-0.1-0.2-0.2-0.4-0.1-0.7
		c0.1-0.2-0.1-0.3-0.2-0.4c-0.3-0.3-0.6-0.6-0.8-1c0-0.1-0.1-0.1-0.2-0.2c-0.3-0.2-0.5-0.5-0.5-0.8c0-0.2,0-0.3,0.2-0.4
		c0.3-0.1,0.3-0.2,0.1-0.4c-0.1-0.2-0.2-0.5-0.4-0.7c-0.1-0.1-0.1-0.2-0.2-0.2c-0.3-0.1-0.4-0.4-0.6-0.6c-0.1-0.1,0-0.2,0-0.3
		c0.1-0.1,0.3-0.2,0.4-0.2c0.3-0.1,0.5-0.2,0.8-0.3c0.4-0.1,0.8-0.2,1.2-0.2c0.2,0,0.4-0.1,0.7-0.2c0.3-0.1,0.7-0.2,1.1-0.2
		c0,0,0.1,0,0.1,0c0.4,0.2,0.9,0.3,1.2,0.6c0.2,0.2,0.2,0.5,0.1,0.7c-0.1,0.1-0.2,0.2-0.3,0.3c-0.1,0.1-0.2,0.2-0.1,0.3
		c0.1,0.1,0.2,0.1,0.3,0.1c0.3-0.1,0.6-0.2,0.9-0.3c0.2-0.1,0.3-0.2,0.5-0.2c0.5-0.2,1-0.3,1.4-0.6c0,0,0,0,0.1,0
		c0.6-0.2,1-0.6,1.6-0.7c0.3-0.1,0.6-0.1,0.8-0.1c0.2,0,0.3,0,0.4-0.2c0.2-0.2,0.4-0.3,0.6-0.2c0.3,0,0.5,0,0.7-0.1
		c0.1,0,0.2,0,0.2,0c0.3,0.3,0.5,0.6,0.9,0.7c0,0,0.1,0.1,0.1,0.1c0.3,0.5,0.6,0.9,1,1.2c0,0,0.1,0.1,0.2,0.1
		c0.2,0.1,0.3,0.2,0.4,0.4c0,0.1,0.2,0.2,0.2,0.3c0.2,0.2,0.1,0.7-0.1,0.9c-0.2,0.1-0.4,0.3-0.5,0.5c0,0.1-0.1,0.2-0.2,0.3
		c-0.2,0.3-0.5,0.6-0.6,0.9c-0.2,0.3-0.3,0.6-0.4,0.8c-0.1,0.4-0.2,0.8-0.4,1.1c-0.1,0.2,0,0.4,0.2,0.5c0.3,0.2,0.6,0.4,0.9,0.5
		c0.4,0.2,0.8,0.4,1,0.9c0.1,0.1,0.2,0.2,0.3,0.1c0.4-0.1,0.8-0.2,1.2-0.3c0.3-0.1,0.6-0.2,1-0.3c0.1,0,0.2,0,0.2-0.1
		c0.7-0.4,1.5-0.6,2.2-0.9c0.4-0.2,0.8-0.3,1.2-0.5c0.3-0.1,0.5-0.2,0.8-0.3c0.3-0.1,0.5-0.2,0.8-0.4c0.1-0.1,0.2-0.2,0.2-0.3
		c0-0.5,0-0.9,0.1-1.4c0,0,0,0,0-0.1c-0.1-0.6-0.1-1.1-0.2-1.7c0-0.5,0-0.9,0-1.4c0-0.2,0-0.3,0-0.5c0-0.2-0.1-0.2-0.3-0.2
		c-0.5,0.2-1,0.4-1.4,0.5c-0.1,0-0.1,0.1-0.2,0.1c-0.2,0.3-0.5,0.5-0.8,0.7c-0.1,0.1-0.2,0.2-0.2,0.3c0,0,0,0,0,0.1
		c-0.1,0.6-0.7,0.9-1.2,0.7c-0.2-0.1-0.4-0.1-0.6-0.3c-0.1-0.1-0.4-0.1-0.5-0.1c-0.2,0-0.3,0-0.3-0.2c-0.1-0.5-0.5-0.7-0.9-0.8
		c-0.3-0.1-0.5-0.3-0.6-0.5c-0.1-0.2-0.2-0.4-0.4-0.6c-0.2-0.2-0.1-0.5,0.2-0.5c0.2,0,0.3-0.1,0.4-0.2c0,0,0.1-0.1,0.2-0.1
		c0.1,0,0.1,0,0.2-0.1c0.2-0.2,0.5-0.3,0.7-0.1c0,0,0,0,0.1,0c0.3-0.1,0.6-0.1,0.9-0.2c0.1,0,0.2,0,0.2-0.1c0.3-0.1,0.3-0.1,0.5-0.3
		c0,0,0,0,0.1,0c0.4,0,0.7,0.1,1.1-0.1c0.5,0,1-0.3,1.5-0.4c0.3-0.1,0.7-0.3,1-0.4c0.2-0.1,0.2-0.3,0.2-0.5
		c-0.1-0.6-0.1-1.3-0.2-1.9c-0.1-0.3-0.2-0.6-0.1-0.9c0,0,0-0.1,0-0.1c-0.2-0.3-0.2-0.6-0.3-0.9c-0.1-0.3-0.1-0.7-0.4-0.9
		c0,0,0-0.1-0.1-0.2c-0.1-0.1-0.1-0.3-0.2-0.4C80,7.3,80,7.3,80,7.2c-0.1-0.2-0.1-0.4-0.3-0.6c-0.2-0.1-0.1-0.6,0.1-0.8
		c0.2-0.2,0.3-0.3,0.6-0.3c0.2,0,0.5,0,0.7-0.1c0.1,0,0.2,0,0.2,0c0.4,0.1,0.8,0.2,1.2,0.2c0.3,0,0.6,0,0.9,0.1
		c0.2,0.1,0.5,0.2,0.7,0.3c0.2,0.1,0.4,0.3,0.4,0.5c0,0.1,0,0.1,0.1,0.2c0.1,0.3,0.1,0.5-0.1,0.7c-0.2,0.2-0.4,0.4-0.6,0.6
		c-0.1,0.1-0.2,0.3-0.2,0.4c0,0.2-0.1,0.4-0.1,0.6c-0.1,0.4,0,0.8,0,1.2c0,0.1,0,0.2,0,0.3c0,0.3,0.1,0.7,0.1,1
		c0,0.1,0.1,0.2,0.3,0.2c0.1,0,0.2,0,0.3,0c0.3-0.1,0.5-0.2,0.8-0.3c0.2-0.1,0.5-0.1,0.7-0.2c0.3-0.1,0.5-0.2,0.8-0.2
		c0.3,0,0.6-0.1,0.9,0c0.6,0.1,1.2,0.4,1.6,0.8c0.1,0.1,0.2,0.1,0.2,0.2c0.1,0.1,0.1,0.3,0,0.5c-0.2,0.2-0.3,0.5-0.6,0.6
		c-0.2,0.1-0.3,0.3-0.4,0.4c-0.2,0.3-0.5,0.4-0.9,0.4c-0.2,0-0.5,0-0.7,0.1c-0.2,0-0.4,0-0.6,0c-0.5-0.2-1.1-0.1-1.6,0.2
		c-0.2,0.1-0.3,0.1-0.5,0.2c-0.3,0.1-0.4,0.2-0.5,0.5c-0.1,0.5-0.1,1-0.1,1.5c0,0.1,0,0.2,0,0.3c-0.1,0.3,0,0.5,0,0.8
		c0.1,0.2,0.1,0.4,0,0.6c0,0.1,0,0.2,0,0.2c0,0.2,0,0.4-0.1,0.5c0,0.1,0,0.1,0,0.2c0,0.4,0,0.8,0,1.2c0,0.1,0.1,0.2,0.2,0.2
		c0.3,0.1,0.7-0.1,1-0.1c0.2,0,0.4-0.1,0.6-0.1c0.1,0,0.2,0,0.3-0.1c0.5-0.2,1-0.4,1.5-0.5c0.4-0.1,0.9-0.2,1.3-0.3
		c0.3-0.1,0.6-0.2,0.9-0.3c0.2-0.1,0.4-0.1,0.5-0.2c0.4-0.1,0.8-0.2,1.2-0.4c0.1,0,0.1,0,0.1-0.1c0.1-0.3,0.5-0.5,0.5-0.9
		c0-0.2,0.1-0.3,0.2-0.4c0.1,0,0.2-0.1,0.2-0.2c0.2-0.1,0.3-0.2,0.5-0.1c0.2,0.1,0.3,0,0.5,0c0.3-0.2,0.6,0,0.7,0.3
		c0,0.1,0.1,0.2,0.2,0.3c0.4,0.3,0.9,0.6,1.2,0.9c0.3,0.3,0.6,0.7,0.6,1.2c0,0,0,0,0,0.1c0.1,0.6,0.1,0.6-0.5,0.7
		c-0.3,0.1-0.6,0.1-0.8,0.4c-0.2,0.2-0.4,0.3-0.7,0.5c-0.2-0.2-0.4-0.2-0.6-0.5c-0.1-0.1-0.3-0.1-0.4-0.1c-0.2,0-0.3,0-0.5-0.1
		c-0.1-0.1-0.3-0.1-0.5,0c-0.1,0.1-0.3,0.1-0.4,0c-0.1-0.1-0.2-0.1-0.3-0.1c-0.2,0-0.4,0-0.6,0c-0.2,0-0.3,0-0.5,0.2
		c0,0-0.1,0.1-0.2,0.1c-0.3-0.1-0.5,0.1-0.8,0.2c-0.1,0-0.3,0-0.4,0.1c-0.2,0.1-0.4,0.1-0.6,0.2c-0.2,0.1-0.5,0.2-0.7,0.2
		c-0.8,0.2-1.6,0.4-2.3,0.6c-0.1,0-0.2,0.1-0.2,0.1c-0.2,0.1-0.4,0.2-0.6,0.3C84.1,22.5,84,22.6,84,23c0,0.4-0.1,0.7,0,1.1
		c0.1,0.5,0.2,1.1,0.5,1.5c0.2,0.2,0.3,0.6,0.1,0.9c-0.2,0.3-0.3,0.6-0.5,1c0,0-0.1,0.1-0.1,0.1c0,0.4-0.2,0.8-0.2,1.2
		c0,0.4-0.1,0.8,0,1.2c-0.2,0.4,0,0.7,0,1.1c0,0.4,0,0.7,0,1.1c0,0.1,0,0.3,0,0.3c0.2,0.4,0.1,0.7,0.1,1.1c0,0.3-0.1,0.5,0.1,0.7
		c0,0.1,0,0.1,0,0.2c-0.1,0.4-0.1,0.8,0,1.2c0,0.3,0,0.5,0,0.8c0,0.1,0,0.2,0,0.3c0,0.2,0,0.3-0.3,0.4c-0.1,0-0.2,0.1-0.3,0.2
		c-0.2,0.2-0.3,0.4-0.5,0.6c-0.1,0.1-0.2,0.1-0.2,0.2c-0.1,0.1-0.2,0.2-0.2,0.2c-0.1,0.1-0.2,0.2-0.3,0.3c-0.2,0.2-0.4,0.1-0.5-0.1
		c-0.1-0.1-0.1-0.2-0.3-0.2c-0.3,0-0.4-0.2-0.6-0.3c-0.1-0.1-0.3-0.2-0.4-0.3c-0.1-0.1-0.3-0.1-0.3-0.2c0-0.2-0.1-0.3-0.3-0.4
		c-0.1,0-0.2-0.2-0.2-0.3c0-0.1-0.1-0.3-0.1-0.4c0-0.2-0.1-0.4-0.3-0.5c-0.1-0.1-0.1-0.2-0.2-0.3c-0.2-0.1-0.3-0.1-0.5-0.2
		c-0.2-0.1-0.1-0.4-0.2-0.5c-0.1-0.1-0.3-0.1-0.4-0.2c-0.1-0.1-0.2-0.2-0.2-0.3c-0.2-0.3-0.4-0.7-0.8-0.9c-0.3-0.2-0.5-0.5-0.6-0.8
		c-0.1-0.2-0.1-0.5-0.1-0.7c0-0.1,0-0.1,0-0.2c-0.1-0.2-0.2-0.3-0.4-0.1c-0.1,0.1-0.2,0.2-0.4,0.2c-0.1,0-0.2,0.1-0.2,0.2
		c-0.2,0.3-0.4,0.4-0.8,0.3c-0.1,0-0.1,0-0.2,0c-0.1,0.2-0.4,0.3-0.6,0.4C73.3,33,73,33,72.9,33.2c0,0-0.2,0-0.2,0
		c-0.3,0-0.4,0-0.4,0.3c-0.1,0.2-0.2,0.3-0.4,0.4c-0.1,0.1-0.2,0.2-0.4,0.3c-0.2-0.1-0.4,0-0.6,0.2c-0.2,0.2-0.4,0.4-0.7,0.3
		c-0.2-0.1-0.3,0.1-0.4,0.2c-0.1,0.3-0.3,0.4-0.6,0.3c-0.1,0-0.2,0-0.3,0.1c-0.3,0.4-0.6,0.5-1,0.7c-0.1,0-0.3,0.1-0.4,0.2
		c-0.4,0.3-0.8,0.6-1.3,0.6c-0.1,0-0.1,0-0.2,0.1c-0.3,0.1-0.5,0.3-0.8,0.4c-0.1,0-0.2,0-0.3-0.1c-0.1-0.1-0.2,0-0.4,0
		c-0.2,0.2-0.5,0.3-0.8,0.4c-0.4,0-0.7,0.2-0.9,0.5c-0.1,0.1-0.2,0.1-0.3,0.2c-0.1,0-0.3,0-0.4,0c-0.3,0-0.6,0-0.8,0.3
		C61.4,38.7,61.3,38.7,61.2,38.8z M65,24.8c0-0.1,0.1-0.3,0.1-0.4c0-0.2,0.2-0.3,0.3-0.2c0.3,0.1,0.5,0,0.7-0.1
		c0.1-0.1,0.3-0.1,0.4-0.2c0.1-0.1,0.2-0.1,0.4-0.2c0.3,0,0.6-0.1,0.9-0.2c0.2-0.1,0.3-0.2,0.6-0.2c0.1,0,0.2-0.1,0.3-0.1
		c0.1-0.1,0.2-0.1,0.3-0.1c0.2,0,0.2,0,0.2-0.2c0-0.1,0-0.2,0-0.3c0.2-0.4,0.1-0.8,0.1-1.2c0-0.1-0.1-0.3-0.1-0.3
		c-0.4-0.2-0.5-0.6-0.8-0.9c-0.1-0.1-0.1-0.3-0.2-0.4c-0.2-0.1-0.2-0.4-0.2-0.6c0-0.1,0-0.2,0.1-0.3c0.2-0.1,0.3-0.3,0.2-0.5
		c0-0.1,0-0.2,0-0.2c0-0.2-0.1-0.3-0.3-0.2c-0.1,0-0.2,0.1-0.3,0.1c-0.2,0.1-0.3,0.2-0.5,0.2c-0.2,0.1-0.4,0.1-0.6,0.3
		c-0.3,0.3-0.6,0.4-1,0.6c-0.1,0.1-0.3,0.2-0.4,0.3c-0.3,0.3-0.6,0.6-1,0.8c-0.2,0.1-0.4,0.3-0.5,0.5c0,0,0,0.1,0,0.1
		c-0.1,0.3-0.1,0.6-0.2,0.8c0,0,0,0.1-0.1,0.1c-0.2,0.2-0.2,0.3-0.1,0.5c0.2,0.4,0.1,0.7-0.2,1c-0.1,0.1-0.2,0.3-0.1,0.4
		c0,0.5,0.4,0.8,0.4,1.3c0.2,0,0.4-0.1,0.5-0.1c0.1,0,0.1-0.1,0.2-0.1C64.5,24.9,64.8,24.8,65,24.8z M80.9,28.5
		c-0.5,0.3-0.8,0.6-0.8,1.2c0,0.1,0,0.1-0.1,0.2c-0.1,0.1-0.1,0.3-0.1,0.5c0,0.2-0.1,0.3,0.1,0.5c0,0,0,0.1,0,0.2c0,0.1,0,0.2,0,0.3
		c0.1,0.2,0.1,0.4,0,0.6c-0.1,0.2,0,0.3,0.1,0.5c0.1,0.1,0.2,0.2,0.2,0.3c0.1,0.2,0.4,0.6,0.6,0.7c0.1,0.1,0.2,0.2,0.4,0.1
		c0.1-0.1,0.1-0.2,0.1-0.4c0-0.1,0-0.3,0-0.4c0-0.4,0-0.8,0-1.1c0-0.6,0-1.2-0.1-1.8C81.5,29.2,81.3,28.8,80.9,28.5z M77.8,27.1
		c0.3-0.2,0.6-0.5,0.8-0.7c0.1-0.1,0.2-0.3,0.4-0.4c0.3-0.2,0.6-0.5,0.8-0.8c0.1-0.2,0.2-0.3,0.3-0.5c0.2-0.2,0.4-0.6,0.7-0.7
		c0,0,0-0.1,0-0.1c-0.1-0.1-0.3-0.1-0.4,0c-0.1,0-0.2,0.1-0.4,0.1c-0.3,0.2-0.8,0.2-1,0.6c0,0-0.1,0-0.1,0.1
		c-0.2,0.1-0.4,0.2-0.6,0.3c0,0-0.1,0.1-0.1,0.1c0,0.2-0.2,0.4-0.3,0.6c-0.1,0.1-0.1,0.2-0.1,0.3c0,0.2,0,0.4-0.1,0.6
		C77.6,26.6,77.6,26.8,77.8,27.1z"/>
	<path id="XMLID_2049_" class="st0" d="M93.2,31.5c-0.1,0.3-0.1,0.5,0.1,0.7c0.1,0.1,0.2,0.2,0.1,0.3c-0.1,0.1-0.2,0.1-0.4,0.1
		c-0.3-0.1-0.5-0.1-0.7,0.1c-0.3-0.1-0.5-0.3-0.8-0.4c-0.1,0.2-0.2,0.4-0.4,0.6c-0.1-0.1-0.1-0.2-0.1-0.2c0-0.2-0.1-0.3-0.3-0.3
		c-0.6-0.1-1.1-0.4-1.6-0.7c-0.1,0-0.1-0.1-0.2-0.2c-0.2-0.3-0.4-0.5-0.6-0.8c-0.1-0.1-0.2-0.1-0.2-0.1c-0.1-0.1-0.3-0.2-0.3-0.3
		c-0.1-0.2-0.3-0.4-0.4-0.6c-0.2-0.3-0.4-0.7-0.6-1c0-0.1,0-0.1-0.1-0.2c-0.2-0.2-0.2-0.4-0.2-0.6c-0.1-0.4-0.1-0.8-0.5-1.1
		c-0.3-0.2-0.3-0.6-0.1-1c0.2-0.6,0.7-0.8,1.2-1.2c0.1-0.1,0.2-0.2,0.4-0.3c0.3-0.2,0.7-0.3,1-0.2c0.1,0,0.3,0,0.4,0
		c0.2-0.1,0.3-0.1,0.4,0.1c0.1,0.2,0.3,0.3,0.5,0.2c0,0,0.1,0,0.1,0c0.3,0.1,0.6,0.2,0.9,0.4c0.1,0.1,0.2,0.2,0.4,0.2
		c0.2,0,0.5,0.1,0.7,0.2c0.1,0,0.1,0,0.2,0.1c0.2,0.1,0.5,0.1,0.7,0.2c0.1,0,0.1,0.1,0.2,0.2c0.2,0.3,0.4,0.4,0.7,0.5
		c0.3,0.1,0.5,0.3,0.7,0.5c0.3,0.3,0.6,0.5,0.9,0.7c0.1,0.1,0.3,0.1,0.4,0.2c0.1,0.1,0.3,0.3,0.3,0.5c0.1,0.3,0.2,0.7,0,1
		c-0.2,0.3-0.1,0.5,0,0.8c0,0.1,0.1,0.1,0.1,0.2c0.1,0.1,0,0.2-0.1,0.3c-0.4,0.2-0.9,0.4-1.3,0.5c-0.2,0.1-0.3,0.2-0.5,0.2
		C93.7,31.4,93.5,31.4,93.2,31.5z"/>
	<g id="XMLID_2063_">
		<path id="XMLID_2086_" class="st0" d="M53.9,33.8c-0.4,0.2-0.5,0.7-0.6,1c0,0.1-0.1,0.2-0.1,0.2c-0.4,0.2-0.7,0.5-1.2,0.5
			c-0.4,0-0.7,0-1,0.1c-0.3,0.1-0.5,0.3-0.6,0.6c-0.1,0.4-0.2,0.8-0.3,1.2c-0.1,0.3-0.1,0.4-0.3,0.6c-0.3,0-0.5,0.1-0.7,0
			c-0.5-0.1-0.9,0.2-1.3,0.3c-0.1,0-0.2,0.1-0.3,0.1c-0.2,0-0.3,0.1-0.4,0.2c0,0.1-0.1,0.1-0.2,0.2c-0.3,0.3-0.4,0.3-0.7,0
			c-0.2-0.2-0.4-0.4-0.4-0.7c0-0.1-0.2-0.2-0.3-0.2c-0.2-0.1-0.9,0-1,0.2c-0.1,0.2-0.3,0.3-0.5,0.3c-0.1,0-0.2,0.1-0.3,0.1
			c-0.2,0.2-0.5,0.3-0.7,0.4c-0.3,0.1-0.7,0.3-1,0.5c-0.1,0-0.2,0.1-0.3,0.1c-0.1,0-0.2,0.1-0.3-0.1c0-0.1,0-0.2,0.1-0.3
			c0.1-0.1,0.2-0.1,0.3-0.2c0.2-0.1,0.4-0.2,0.6-0.4c0.4-0.2,0.7-0.5,1.1-0.7c0.1-0.1,0.2-0.1,0.3-0.2c0.2-0.2,0.4-0.5,0.6-0.7
			c0,0,0-0.1,0.1-0.2c-0.2-0.1-0.5-0.1-0.6,0.1c-0.1,0.2-0.3,0.2-0.5,0.3c-0.2,0-0.3,0.1-0.5,0.2c-0.5,0.2-1,0.4-1.4,0.7
			c-0.1,0-0.1,0.1-0.2,0.2c-0.1,0.1-0.2,0.2-0.3,0.2c-0.4,0-0.7,0.3-1,0.4c-0.1,0-0.2,0.1-0.3,0.1c-0.4,0-0.6,0.2-0.9,0.4
			c-0.3,0.2-0.7,0.2-1.1,0.3c-0.3,0.1-0.3,0-0.5,0.3c-0.2-0.1-0.5-0.1-0.7,0.1c-0.1,0-0.2,0.1-0.3,0c-0.2-0.1-0.3,0-0.5,0.1
			c-0.1,0.1-0.3,0.1-0.4,0.2c-0.1,0-0.2,0.1-0.2,0.1c-0.1,0.1-0.2,0.1-0.3,0.2c-0.2,0.1-0.4,0.2-0.6,0.4c-0.2,0.2-0.5,0.3-0.8,0.3
			c-0.3,0-0.6,0.1-0.9,0.3c-0.1,0-0.1,0.1-0.1,0.2c-0.1,0.5-0.5,0.7-0.9,0.9c-0.1,0-0.3,0.1-0.3,0.2c-0.1,0.2-0.1,0.3-0.4,0.3
			c-0.3,0-0.5-0.1-0.6-0.4c0-0.1-0.1-0.2-0.2-0.3c0,0-0.1,0-0.1,0c-0.1,0.3-0.1,0.5-0.2,0.8c-0.1,0-0.2,0-0.3,0
			c-0.3,0-0.4,0.1-0.5,0.4c-0.1,0.1-0.2,0.2-0.3,0.3c-0.1,0.1-0.2,0.2-0.3,0.3c-0.1,0.3-0.3,0.4-0.6,0.4c0,0-0.1,0-0.1,0
			c-0.3,0-0.5,0.1-0.7,0.3c-0.3,0.4-0.6,0.4-0.9,0c-0.1-0.1-0.2-0.1-0.2-0.2c-0.2-0.4-0.6-0.5-0.9-0.5c-0.2,0-0.4,0-0.5-0.1
			c-0.3-0.1-0.7-0.3-0.7-0.8c0-0.2-0.1-0.4-0.3-0.5c-0.1,0-0.1-0.1-0.1-0.1c-0.2-0.3-0.4-0.6-0.8-0.9c-0.3-0.2-0.3-0.5-0.5-0.8
			c-0.1-0.1-0.2-0.3-0.2-0.4c0-0.2,0-0.4,0.1-0.5c0.2-0.2,0.3-0.5,0.4-0.8c0.1-0.2,0.2-0.3,0.4-0.3c0.2,0,0.4,0,0.6-0.1
			c0.1-0.1,0.2,0,0.3,0c0.1,0,0.3,0,0.4,0c0.1,0,0.2,0.1,0.3,0.1c0.2,0.1,0.3,0.1,0.5,0c0.2-0.1,0.4-0.2,0.7-0.2
			c0.2,0,0.3-0.1,0.5-0.1c0.7-0.1,1.4-0.2,2-0.4c0.3-0.1,0.6-0.1,0.9-0.2c0.1,0,0.2-0.1,0.2-0.2c0-0.2,0.1-0.4,0.1-0.6
			c0-0.3-0.1-0.7-0.2-1c0-0.1,0-0.2,0-0.3c0-0.4,0-0.9-0.3-1.2c0-0.1,0-0.2-0.1-0.2c0-0.1-0.1-0.3-0.1-0.4c-0.1-0.3-0.2-0.7-0.3-1
			c-0.1-0.3-0.1-0.7-0.2-1c-0.1-0.5-0.3-1-0.6-1.5c-0.1-0.2-0.2-0.4-0.4-0.6c0.1-0.3,0.1-0.5-0.1-0.8c0,0-0.1-0.1-0.1-0.1
			c0-0.6-0.5-0.8-0.9-1.2c-0.1-0.1-0.2-0.1-0.2-0.2c-0.1-0.4-0.2-0.8-0.1-1.2c0-0.2,0.1-0.3,0.3-0.4c0.2,0,0.3,0,0.5,0
			c0.4,0.1,0.9,0.2,1.3,0.1c0.1,0,0.2,0,0.3,0c0.5,0.1,1,0.1,1.5,0.2c0,0,0,0,0,0c0.7-0.2,1.2,0.2,1.8,0.3c0.1,0,0.2,0.1,0.3,0.2
			c0.1,0.1,0.2,0.1,0.3,0.1c0.5,0,0.6,0.3,0.7,0.6c0.2,0.4,0.5,0.7,0.9,0.6c0.3-0.1,0.6-0.2,1-0.2c0.4-0.1,0.8-0.2,1.2-0.3
			c0.9-0.2,1.8-0.4,2.7-0.6c0.7-0.2,1.4-0.3,2.1-0.5c0.2-0.1,0.5-0.1,0.7-0.2c0,0,0,0,0,0c0.4-0.4,1-0.3,1.5-0.5c0,0,0.1,0,0.1-0.1
			c0.2-0.2,0.4-0.2,0.6-0.2c0,0,0.1,0,0.2,0c0.2-0.1,0.3-0.1,0.2-0.3c-0.1-0.2-0.1-0.4,0-0.6c0-0.1,0-0.2,0-0.2c0-0.1,0-0.3,0.1-0.4
			c0.1-0.4,0.5-0.6,1-0.6c0.4,0,0.8,0,1.1-0.2c0.1-0.1,0.2,0,0.3,0c0.5,0.3,0.9,0.5,1.5,0.6c0.1,0,0.2,0.1,0.2,0.1
			c0.4,0.4,0.9,0.5,1.3,0.6c0.2,0,0.4,0.1,0.5,0.3c0,0.1,0.1,0.2,0.2,0.2c0.2,0.1,0.5,0.3,0.7,0.4c0.7,0.4,1,1.1,1.1,1.8
			c0,0.1,0,0.2-0.1,0.3c-0.2,0.4-0.3,0.8-0.5,1.1c-0.1,0.2-0.2,0.3-0.3,0.5c0,0.1-0.1,0.1-0.1,0.2c0,0.3-0.1,0.6-0.1,0.8
			c0,0.1,0.1,0.2,0.2,0.3c0.2,0.2,0.2,0.4,0.1,0.7c-0.1,0.2-0.2,0.4-0.2,0.6c0,0.2,0,0.3,0.2,0.4c0.2,0.1,0.5,0.2,0.7,0.3
			c0.1,0,0.2,0.1,0.3,0.1c0.7,0,1.2,0.4,1.6,0.9C53.9,33.7,53.8,33.8,53.9,33.8z M43.7,35c0.3,0.1,0.4-0.1,0.7-0.2
			c0.6-0.2,0.8-0.5,0.9-1.1c0-0.3,0-0.6,0.1-0.9c0.2-0.7,0.2-1.3,0.1-2c0-0.2,0-0.3,0-0.5c0-0.4,0-0.8,0-1.2c0,0,0-0.1,0-0.1
			c-0.2-0.2-0.2-0.5-0.1-0.8c0-0.3,0-0.4-0.3-0.5c-0.3-0.1-0.6-0.1-0.9-0.1c-0.3,0-0.6,0-0.9,0.2c-0.1,0-0.2,0.1-0.2,0.1
			c-0.6,0.2-1.3,0.4-1.9,0.7c-0.2,0.1-0.4,0.2-0.6,0.2c-0.5,0.1-1,0.3-1.5,0.4c-0.2,0-0.3,0.1-0.4,0.3c0,0.1-0.1,0.2-0.2,0.2
			c-0.6,0.1-0.9,0.6-1.5,0.7c-0.1,0-0.1,0.1-0.2,0.1c-0.2,0.2-0.4,0.4-0.7,0.6c-0.3,0.2-0.6,0.3-0.9,0.5c-0.1,0.1-0.3,0.1-0.4,0.1
			c-0.1,0-0.2,0.1-0.3,0.1c-0.3,0.1-0.6,0.2-0.9,0.2c-0.3,0.1-0.5,0-0.8,0.1c-0.1,0-0.2,0-0.3,0c-0.4,0-0.6,0.2-0.5,0.7
			c0.1,0.3,0.1,0.5,0,0.8c-0.1,0.4-0.4,0.7-0.3,1.2c0,0,0,0.1-0.1,0.1c-0.4,0.4-0.4,0.9-0.3,1.3c0,0.3,0,0.6-0.1,0.8
			c-0.1,0.3,0.1,0.4,0.4,0.4c0.6,0,1.3-0.2,1.9-0.3c0.5-0.1,0.9-0.2,1.4-0.2c0.3,0,0.5-0.1,0.8,0c0.2,0.1,0.5,0.1,0.8,0
			c0.1,0,0.2-0.1,0.3-0.2c0.2-0.3,0.5-0.3,0.8-0.2c0.1,0,0.3,0,0.3,0c0.2-0.2,0.4-0.2,0.6-0.1c0.3,0,0.6,0,0.9-0.2
			c0.1-0.1,0.2-0.1,0.4-0.1c0.1,0,0.2,0,0.3,0c0.2-0.1,0.5-0.2,0.7-0.3c0.2-0.1,0.4,0,0.6-0.1c0.1,0,0.2,0,0.2,0
			c0.2-0.2,0.4-0.2,0.6-0.3c0.4-0.1,0.9-0.3,1.3-0.5C43.5,35,43.6,35.1,43.7,35z"/>
		<path id="XMLID_2040_" class="st0" d="M22.6,19.7c0.5,0.4,0.9,0.5,1.5,0.3c0.1-0.1,0.2-0.1,0.3,0c0.1,0.1,0.3,0.1,0.5,0
			c0.3-0.1,0.7-0.2,0.9-0.5c0-0.1,0.1-0.1,0.2-0.1c0.1-0.1,0.3-0.1,0.4-0.2c0.3-0.3,0.7-0.6,1.1-0.7c0.1,0,0.2-0.2,0.3-0.2
			c0.1-0.1,0.3-0.2,0.4-0.3c0,0,0.1,0,0.1-0.1c0.4-0.5,1.1-0.7,1.5-1.3c0.2-0.2,0.5-0.4,0.8-0.5c0.1,0,0.2,0,0.2-0.1
			c0.2-0.3,0.5-0.4,0.7-0.6c0.1,0,0.1-0.1,0.2-0.2c0.1-0.1,0.2-0.2,0.3-0.3c0.1-0.2,0.3-0.4,0.5-0.5c0.3-0.2,0.5-0.4,0.8-0.6
			c0.1-0.1,0.1-0.2,0.2-0.2c0.5-0.1,0.7-0.5,1.1-0.9c0.2-0.2,0.4-0.3,0.6-0.4c0.4-0.3,0.7-0.8,1.2-1c0.1,0,0.2-0.2,0.2-0.3
			c0.3-0.3,0.4-0.7,0.8-1c0.1-0.1,0.2-0.3,0.4-0.4c0.2-0.2,0.3-0.3,0.5-0.5c0.1-0.1,0.2-0.1,0.2-0.1C38.5,8.5,38.8,8.3,39,8
			c0-0.1,0.1-0.2,0.2-0.2c0.1-0.1,0.3-0.3,0.3-0.4c0.1-0.5,0.5-0.9,0.4-1.4c0-0.1,0-0.1,0.1-0.2c0-0.1,0.1-0.2,0.1-0.2
			c-0.1-0.3,0.1-0.6,0-0.9c0-0.2,0.1-0.3,0.3-0.4c0.2,0,0.5-0.1,0.8,0c0.5,0.1,1,0.3,1.4,0.6C42.6,4.9,42.8,5,43,5
			c0.2,0,0.3,0.1,0.4,0.2c0.2,0.2,0.3,0.2,0.5,0.3c0.2,0.1,0.4,0.1,0.7,0.2c0.3,0.1,0.5,0.1,0.5,0.5c0,0.1,0.1,0.2,0.2,0.2
			c0.3,0.1,0.4,0.5,0.7,0.7C46,7.2,46,7.3,46.1,7.4c0,0.1,0,0.2,0.1,0.3c0.3,0.3,0.1,0.5,0,0.8c-0.1,0.3-0.3,0.5-0.6,0.6
			c-0.6,0.3-1.1,0.3-1.7,0.5c-0.5,0.1-1,0.3-1.4,0.5c-0.2,0.1-0.3,0-0.5,0c-0.2-0.1-0.5-0.2-0.7-0.3c-0.1,0-0.1,0-0.2,0
			c-0.2,0-0.4,0-0.6,0c-0.2,0-0.4,0-0.6,0.2c0,0.1-0.1,0.1-0.2,0.1c-0.5,0.2-0.8,0.5-1.2,0.8c-0.2,0.2-0.4,0.4-0.6,0.6
			c-0.1,0.1-0.3,0.2-0.4,0.2c-0.4,0.2-0.8,0.3-1,0.8c-0.1,0.3-0.5,0.4-0.8,0.6c-0.1,0-0.2,0.1-0.3,0.1c-0.2,0.2-0.4,0.4-0.7,0.5
			c-0.4,0.3-0.7,0.6-1.1,0.9c-0.1,0-0.1,0.1-0.2,0.1c-0.3,0.1-0.6,0.3-0.8,0.6c-0.5,0.6-1.1,1-1.7,1.4c-0.2,0.1-0.4,0.4-0.7,0.5
			c-0.3,0.2-0.5,0.4-0.8,0.6c-0.6,0.4-1.2,0.8-1.7,1.2c-0.3,0.2-0.5,0.5-0.8,0.7c-0.1,0.1-0.1,0.2,0,0.3c0.2,0.1,0.4,0.2,0.5,0.1
			c0.5-0.3,1.1-0.2,1.7-0.3c0.5-0.1,1-0.2,1.4-0.3c0.2,0,0.3-0.1,0.5-0.1c0.4,0.1,0.8-0.1,1.1-0.2c0.5-0.1,1-0.2,1.5-0.3
			c0.8-0.1,1.7-0.2,2.5-0.3c0.5-0.1,1.1-0.1,1.6-0.1c0.3,0,0.6,0,0.9-0.1c1-0.2,1.9-0.1,2.9-0.3c0.1,0,0.2,0,0.3-0.1
			c0.3-0.3,0.7-0.3,1.1-0.2c0.3,0.1,0.6-0.1,0.9-0.3c0.1,0,0.1-0.2,0.1-0.3c0-0.2,0-0.3,0.2-0.3c0.3-0.1,0.6-0.3,1-0.3
			c0.3-0.1,0.5,0,0.7,0.1c0.1,0.2,0.1,0.4,0.2,0.6c0,0.1,0.2,0.2,0.3,0.2c0.1,0,0.2,0,0.2-0.1c0,0,0-0.2,0-0.2
			c-0.2-0.2-0.3-0.4-0.3-0.7c0-0.1-0.1-0.2-0.1-0.3c-0.2-0.2-0.2-0.4-0.2-0.6c0-0.1,0-0.2-0.1-0.3c-0.1-0.2-0.1-0.3-0.1-0.5
			c0-0.2,0.1-0.4,0.4-0.3c0.1,0,0.1,0,0.2,0c0.4-0.1,0.8-0.1,1.2,0c0.4,0.1,0.7,0,1.1,0c0.7-0.1,1.5,0.1,2.2,0.2
			c0.1,0,0.2,0,0.3,0.1c0.2,0,0.3,0.1,0.4,0.2c0.2,0.3,0.4,0.5,0.7,0.5c0.1,0,0.1,0,0.2,0c0.5,0.3,0.9,0.6,1.3,0.9
			c0.1,0.1,0.1,0.3,0.1,0.4c0,0.3,0.1,0.6,0.2,0.9c0.2,0.6,0.5,1.1,0.6,1.7c0,0.2,0.1,0.3,0.2,0.5c0.2,0.3,0.2,0.6,0.3,0.9
			c0,0.2,0.1,0.3,0.1,0.5c0.1,0.2,0.2,0.5,0.2,0.7c0,0.2,0,0.5-0.1,0.7c0,0.3-0.2,0.4-0.4,0.3c-0.2-0.1-0.4-0.2-0.6-0.3
			c0,0-0.1,0.1-0.2,0.1c-0.1,0-0.1,0.1-0.2,0.1c-0.5,0-0.8,0.3-1.2,0.5c-0.4,0.2-0.7,0.1-1-0.1c-0.3-0.3-0.7-0.5-1.1-0.6
			c-0.2-0.1-0.5-0.3-0.6-0.5c-0.3-0.3-0.6-0.6-0.7-1c0-0.1-0.1-0.2-0.2-0.2c0-0.1-0.1-0.1-0.1-0.2c0.1-0.5-0.4-0.6-0.5-0.9
			c-0.1-0.1-0.3-0.1-0.4-0.2c-0.1,0-0.3-0.1-0.3-0.3c-0.1-0.1-0.2-0.2-0.4-0.4c-0.1,0.3-0.3,0.5-0.6,0.6c-0.2,0.1-0.3,0-0.5,0.1
			c-0.4,0-0.8-0.1-1.2,0.1c-0.3,0.1-0.5,0.2-0.8,0c0,0-0.2-0.1-0.2,0c-0.2,0.2-0.5,0.1-0.7,0.3c-0.2,0.2-0.6,0.1-0.7-0.1
			c-0.1-0.2-0.3-0.3-0.5-0.2c-0.5,0.1-1.1,0.2-1.6,0.3c-0.2,0-0.5,0.1-0.7,0.1c-0.7,0.1-1.5,0.3-2.2,0.4c-0.3,0-0.5,0-0.8,0.1
			c-0.4,0.1-0.7,0.1-1.1,0.2c-0.2,0-0.4,0.1-0.6,0.1c-0.3,0-0.6,0.1-0.9,0.3c-0.1,0.1-0.3,0.1-0.4,0.1c-0.3,0-0.6,0-0.9,0.2
			c0,0-0.1,0-0.1,0c-0.5-0.1-0.9,0.1-1.3,0.3c-0.3,0.1-0.5,0.1-0.8,0c-0.2-0.1-0.4,0-0.6,0.1c-0.3,0.2-0.6,0.5-0.9,0.7
			c-0.1,0.1-0.2,0.1-0.4,0.2c0,0-0.1,0-0.2,0c-0.4,0.3-0.9,0.3-1.4,0.4c-0.2,0-0.3,0.2-0.3,0.3c0.1,0.4-0.3,0.5-0.3,0.8
			c0,0-0.1,0.1-0.1,0.1c0,0-0.1,0-0.1,0c-0.1,0.1-0.3,0.1-0.3,0.2c0,0.4-0.6,0.4-0.6,0.9c0,0.4-0.1,0.9-0.7,1
			c-0.1,0-0.3,0.1-0.3,0.2c-0.2,0.3-0.6,0.4-0.9,0.4c-0.3,0-0.6,0-0.9,0c-0.1,0.3-0.2,0.5-0.5,0.6c-0.2,0.1-0.3,0.2-0.5,0.3
			c-0.3-0.1-0.5-0.2-0.5-0.6c-0.2,0-0.3,0-0.4,0c-0.2,0-0.4-0.1-0.5-0.2c-0.1-0.2-0.2-0.3-0.4-0.4c-0.2-0.2-0.4-0.4-0.5-0.6
			c-0.1-0.3-0.3-0.5-0.5-0.8c-0.1-0.2-0.2-0.4-0.2-0.6c-0.1-0.4-0.2-0.7-0.4-1c-0.1-0.2-0.2-0.4-0.3-0.5c-0.1-0.3-0.3-0.6-0.4-0.9
			c-0.1-0.3-0.1-0.6,0.1-0.8c0.1,0,0.1-0.1,0.1-0.2c-0.1-0.3,0.2-0.5,0.3-0.7c0.1-0.1,0.2-0.2,0.3-0.3c0.1-0.2,0.3-0.2,0.5-0.2
			c0.2,0.1,0.4,0,0.5-0.2c0,0,0.1-0.1,0.1-0.1c0.1-0.1,0.2-0.4,0.4-0.4c0.1,0,0.3,0.1,0.5,0.2c0,0,0.1,0,0.1,0c0.4,0,0.7,0,1.1,0
			c0.1,0,0.1,0,0.2,0C22.1,19.8,22.4,19.7,22.6,19.7z"/>
	</g>
	<g id="XMLID_2064_">
		<path id="XMLID_2038_" class="st1" d="M129.9,31.9c-0.2-0.1-0.3-0.2-0.4-0.2c-0.3-0.1-0.4-0.3-0.3-0.5c0.1-0.2,0.3-0.2,0.5,0
			c0.2,0.1,0.4,0.1,0.5,0c0.2-0.2,0.6-0.3,0.8-0.7c0,0,0.1-0.1,0.1-0.1c0.3-0.1,0.3-0.3,0.2-0.5c-0.1-0.3-0.2-0.5-0.5-0.5
			c-0.4-0.1-0.7-0.3-1-0.7c-0.2-0.2-0.4-0.4-0.7-0.6c-0.2-0.2-0.2-0.2-0.1-0.4c0.1-0.1,0.2-0.3,0.4-0.4c-0.2-0.2-0.3-0.2-0.5-0.1
			c-0.2,0.1-0.3-0.1-0.3-0.3c0.1-0.3,0.1-0.5,0-0.8c-0.1-0.3,0.1-0.6,0.1-0.8c0-0.1,0-0.2,0-0.4c0-0.1-0.1-0.2-0.1-0.3
			c-0.3-0.2-0.7-0.3-1-0.4c0,0.1-0.1,0.2-0.1,0.3c0,0.4,0,0.8,0.1,1.2c0,0.2,0.1,0.4,0.1,0.5c0,0.6,0,1.2,0,1.8c0,0.2,0,0.4-0.1,0.5
			c-0.1,0.4-1.5,0.9-1.9,0.9c-0.2,0-0.5,0-0.7,0c-0.1,0-0.3,0-0.4,0c-0.7-0.1-1.4-0.1-2.1-0.3c-0.4-0.1-0.7-0.3-1.1-0.5c0,0,0,0,0,0
			c0-0.3-0.3-0.5-0.5-0.7c-0.2-0.3-0.5-0.6-0.8-0.8c-0.3-0.1-0.6-0.4-0.9-0.6c-0.1-0.1-0.1-0.2-0.1-0.4c0.2-0.3,0.4-0.6,0.5-0.9
			c0.2-0.4,0.2-1.2-0.2-1.5c-0.1-0.1-0.1-0.1-0.2-0.1c-0.1,0-0.2-0.1-0.3-0.1c-0.6-0.3-1.2,0-1.7,0.1c0,0-0.1,0.1-0.1,0.1
			c-0.2,0.2-0.4,0.2-0.7,0.1c-0.2-0.1-0.5-0.1-0.7-0.1c-0.2,0-0.3,0.2-0.4,0.4c0,0.1,0,0.3-0.1,0.3c-0.3,0.3-0.3,0.7-0.1,1.1
			c0.1,0.1,0.1,0.3,0.1,0.4c-0.1,0.4-0.2,0.8-0.3,1.1c-0.2,0.5-0.5,1.1-0.8,1.6c-0.1,0.2-0.2,0.4-0.4,0.7c-0.1-0.2-0.2-0.4-0.2-0.6
			c0.1-0.5-0.1-1-0.1-1.5c0-0.2-0.1-0.3-0.3-0.4c-0.5-0.2-1-0.4-1.3-0.9c-0.1-0.1-0.1-0.2-0.2-0.2c-0.4-0.1-0.8-0.2-1.1-0.3
			c-0.1,0-0.2,0-0.2,0c-0.5,0.1-1,0.1-1.5,0.2c0,0-0.1,0-0.1,0c-0.6,0.3-1.3,0.5-1.9,0.7c-0.1,0-0.1,0.1-0.2,0.1
			c-0.5,0.3-1,0.6-1.5,0.8c-0.3,0.2-0.5,0.3-0.8,0.5c-0.1,0.5-0.6,0.6-0.8,1c-0.1,0.2-0.2,0.1-0.3,0c-0.2-0.2-0.3-0.4-0.5-0.6
			c-0.2-0.2-0.4-0.5-0.6-0.6c-0.6-0.4-1.2-0.5-1.9-0.4c-0.2,0-0.4,0-0.4,0.3c-0.1,0.3-0.1,0.6,0.1,0.8c0.2,0.2,0.5,0.4,0.7,0.6
			c0.4,0.2,0.7,0.5,0.8,1c0,0.1,0.1,0.2,0.2,0.3c0.2,0.3,0.4,0.6,0.6,1c0.2,0.3,0.4,0.6,0.3,1.1c0,0.1,0.1,0.2,0.1,0.3
			c0,0.1,0.1,0.3,0,0.3c-0.1,0.2-0.1,0.5-0.1,0.7c0,0.3,0,0.6,0,0.9c0,0.1,0.1,0.3,0.2,0.4c0.1,0.1,0.3,0.2,0.5,0.3
			c0.1,0.1,0.3,0.1,0.4,0.2c0.1,0.3,0.3,0.3,0.5,0.4c0.3,0.1,0.6,0.2,0.7,0.4c0,0.1,0.1,0.1,0.2,0.1c0.6,0.2,1.2,0.3,1.8,0.2
			c0.2,0,0.3-0.1,0.4-0.4c0-0.1,0-0.2,0-0.3c0-0.2,0.3-0.6,0.5-0.6c0.4,0,0.6-0.2,0.9-0.3c0.5-0.2,1-0.2,1.5-0.1
			c0.1,0,0.3,0.1,0.4,0.2c0.4,0.2,0.4,0.5,0,0.8c-0.2,0.2-0.3,0.4-0.5,0.6c-0.1,0.1-0.2,0.3-0.3,0.4c-0.3,0.5-0.5,1-0.8,1.4
			c-0.2,0.3-0.3,0.7-0.4,1c-0.1,0.1-0.1,0.2-0.2,0.3c-0.4,0.4-0.7,0.9-1.1,1.4c-0.3,0.4-0.3,0.9-0.3,1.3c0,0.1,0.1,0.2,0.1,0.2
			c0.1,0.1,0.5,0,0.6-0.2c0.2-0.3,0.4-0.6,0.6-0.8c0.1-0.1,0.2-0.2,0.3-0.2c0.1-0.1,0.2-0.1,0.2-0.2c0-0.2,0.1-0.4,0.4-0.6
			c0.1,0,0.1-0.2,0.1-0.2c0.1-0.1,0.1-0.3,0.2-0.4c0.3-0.3,0.6-0.7,0.7-1.2c0.1-0.2,0.2-0.3,0.3-0.5c0.1-0.1,0.2-0.2,0.2-0.3
			c0.1-0.5,0.4-1,0.7-1.4c0.3-0.4,0.4-0.9,0.9-1.1c0.1-0.1,0.1-0.2,0.1-0.3c0.1-0.2,0.1-0.4,0.3-0.6c0.3-0.3,0.4-0.6,0.6-0.9
			c0.1-0.1,0.1-0.2,0.2-0.3c0.1-0.2,0.3-0.4,0.4-0.6c0.1-0.2,0.2-0.4,0.3-0.5c0.2-0.3,0.7-0.4,0.9-0.9c0,0,0.1-0.1,0.1-0.1
			c0.2-0.1,0.3-0.2,0.3-0.5c0-0.1,0-0.2,0.1-0.3c0.1-0.2,0.3-0.4,0.4-0.6c0.2-0.5,0.8-0.8,0.9-1.4c0,0,0,0,0.1-0.1
			c0.1-0.2,0.4-0.6,0.4-0.8c0,0,0,0,0.1,0c0,0.2,0,0.3,0,0.4c0,0.1,0,0.2,0,0.2c0.3,0.5,0.2,1.1,0.4,1.6c0.1,0.4,0.3,0.7,0.5,1.1
			c0,0.1,0.2,0.1,0.3,0.2c0.1,0.1,0.2,0.1,0.2,0.2c0.1,0.4,0.4,0.5,0.7,0.5c0.3,0,0.5,0.1,0.6,0.4c0.1,0.2,0.2,0.3,0.4,0.3
			c0.4,0.1,0.8,0.2,1.1,0.2c0.4,0,0.9,0.2,1.3,0c0.3,0.3,0.5,0.4,0.8,0.2c0.3-0.2,0.5-0.1,0.8,0c0.1,0.1,0.3,0.2,0.4,0.2
			c0.3-0.1,0.6-0.2,0.9-0.2c0.4,0.1,1.9-0.3,2.2-0.4c0.4-0.1,0.8-0.1,1.2-0.1c0.2,0,0.4-0.1,0.4-0.3c0-0.2,0.1-0.4,0.3-0.4
			C129.8,32.1,129.8,32,129.9,31.9z"/>
		<path id="XMLID_2037_" class="st1" d="M134.1,22.4c-0.4,0.4-0.7,0.3-1.1,0.1c-0.4-0.2-0.8-0.4-1.2-0.4c-0.7,0-0.8,0.1-0.7,0.8
			c0.1,0.3,0.2,0.5,0.3,0.7c0.1,0.4,0.2,0.8,0.3,1.3c0,0.1,0.1,0.2,0.1,0.3c0.1,0.2,0.1,0.3,0.2,0.5c0.1,0.2,0.2,0.3,0.3,0.4
			c0.3,0.4,0.6,0.8,0.8,1.2c0.2,0.3,0.3,0.4,0.6,0.6c0.1,0.1,0.2,0.2,0.3,0.3c0.2,0.2,0.4,0.4,0.6,0.6c0.1,0,0.2,0,0.3,0
			c0.4-0.1,0.7-0.1,1.1,0.2c0.3,0.2,0.6,0.3,0.9,0.5c0.1,0,0.2,0.1,0.2,0.2c0.2,0.2,0.4,0.4,0.6,0.4c0.3,0.1,0.5,0.2,0.7,0.4
			c0.1,0.1,0.2,0.2,0.3,0.2c0.4,0.4,0.9,0.7,1.2,1.2c0,0.1,0.2,0.2,0.2,0.2c0.4,0.2,0.7,0.5,1,0.9c0.1,0.1,0.2,0.2,0.3,0.2
			c0.4,0.2,0.8,0.4,1.1,0.8c0.1,0.2,0.3,0.3,0.4,0.4c0.3,0.2,0.6,0.3,1,0.2c0.2-0.1,0.4-0.2,0.6-0.2c0.3,0,0.5-0.2,0.5-0.5
			c0.1-0.3,0.3-0.5,0.5-0.8c0.2-0.3,0.5-0.1,0.8,0c0-0.3,0.2-0.4,0.4-0.4c0.1,0,0.3-0.2,0.4-0.3c0.2-0.3,0.2-0.3,0.6-0.2
			c0.2,0,0.3,0.1,0.5,0c-0.1-0.2-0.1-0.4-0.2-0.6c-0.1-0.3-0.1-0.6-0.3-0.8c-0.1-0.3-0.4-0.5-0.6-0.8c-0.1-0.1-0.2-0.1-0.3-0.1
			c-0.1,0-0.2,0-0.2,0c-0.1-0.1-0.1-0.3-0.2-0.4c-0.1-0.1-0.2-0.2-0.3-0.3c-0.3-0.3-0.6-0.6-1-0.8c-0.3-0.2-0.6-0.4-0.8-0.7
			c-0.1-0.2-0.2-0.2-0.4-0.2c-0.1,0-0.1,0.1-0.2,0.1c-0.1-0.1-0.2-0.1-0.2-0.2c-0.2-0.2-0.4-0.3-0.5-0.5c-0.2-0.4-0.4-0.6-0.8-0.7
			c-0.3-0.1-0.5-0.2-0.8-0.4c-0.3-0.2-0.6-0.5-1.1-0.5c-0.1,0-0.2-0.1-0.3-0.2c-0.3-0.2-0.5-0.5-0.9-0.5c-0.1,0-0.1-0.1-0.2-0.1
			c-0.4-0.4-0.9-0.5-1.4-0.8c-0.4-0.2-0.8-0.3-1.2-0.5c-0.3-0.1-0.6-0.2-1-0.2C135,23.2,134.5,23.1,134.1,22.4z"/>
		<path id="XMLID_2036_" class="st1" d="M99,14.9c0.1,0.2,0.3,0.4,0.3,0.7c0.1,0.4,0.3,0.7,0.6,0.9c0.5,0.6,1.1,1.2,1.7,1.7
			c0.5,0.4,0.8,0.4,1.1-0.2c0-0.1,0.1-0.2,0.2-0.3c0.1-0.1,0.1-0.2,0.2-0.2c0.1-0.3,0.3-0.5,0.5-0.7c0.2-0.2,0.4-0.5,0.7-0.6
			c0,0,0,0,0,0c0.1-0.2,0.3-0.2,0.5-0.2c0.2,0,0.4,0,0.5-0.2c0.1-0.1,0.2-0.1,0.2-0.2c0.3-0.3,0.8-0.3,1.1-0.8
			c0.4,0.1,0.7-0.1,1-0.2c0.4-0.1,0.4-0.2,0.4-0.6c0-0.1,0-0.3,0-0.4c0.2,0,0.3,0.1,0.4,0.2c0.1,0.1,0.2,0.2,0.3,0.3
			c0,0,0.1,0,0.1-0.1c-0.1-0.1-0.1-0.2-0.2-0.3c0.2-0.1,0.3-0.2,0.5-0.4c0.3,0.5,0.3,0.4,0.7,0.3c0.2-0.1,0.5-0.2,0.7-0.2
			c0.3-0.1,0.6-0.2,0.9-0.3c0.1,0,0.1-0.1,0.1-0.2c0.2-0.4,0.3-0.8,0.5-1.2c0.1-0.2,0-0.3-0.3-0.3c-0.2,0-0.4,0-0.6,0
			c-0.1,0-0.3-0.1-0.4-0.2c-0.2-0.4-0.5-0.8-0.5-1.3c0-0.3-0.1-0.6-0.2-0.9c0-0.1-0.1-0.2-0.2-0.3c-0.2-0.2-0.3-0.4-0.4-0.6
			c-0.1-0.1-0.1-0.3-0.3-0.3c-0.2-0.1-0.3-0.2-0.4-0.4c-0.1-0.2-0.2-0.4-0.3-0.7c-0.2-0.3-0.4-0.7-0.8-0.8c-0.5-0.1-1,0-1.5,0
			c-0.3,0-0.6,0.1-0.9,0.1c-0.6,0.1-1.2,0.1-1.8,0.4c-0.3,0.1-0.3,0.3-0.1,0.5c0.1,0.1,0.2,0.2,0.3,0.2c0.2,0.2,0.2,0.3,0,0.5
			c-0.1,0.1-0.2,0.2-0.3,0.3c0.3,0.1,0.5,0.2,0.7,0.3c0.5,0,0.7,0.3,1,0.6c0.1,0.1,0.2,0.2,0.2,0.2c0.4,0.3,0.7,0.5,1,0.9
			c0.2,0.3,0.4,0.4,0.7,0.4c0.4-0.1,0.7,0,1.1,0c0.5,0.1,1,0.3,1.4,0.7c0.3,0.3,0.2,0.5-0.2,0.7c-0.5,0.1-0.9,0.3-1.4,0.4
			c-0.3,0.1-0.5,0.2-0.7,0.2c-0.5,0-0.9,0.2-1.3,0.4c-0.3,0.2-0.5,0.2-0.8,0.2c-0.2,0-0.3,0-0.5,0c-0.1,0-0.3,0-0.4,0.1
			c-0.2,0.2-0.5,0.3-0.8,0.4c-0.2,0.1-0.3,0.2-0.5,0c0,0-0.2,0-0.2,0c-0.4,0.3-0.9,0.3-1.4,0.5c-0.4,0.2-0.8,0.3-1.3,0.2
			c-0.1,0-0.2,0-0.3,0.1C99.6,14.6,99.4,14.7,99,14.9z"/>
		<path id="XMLID_2011_" class="st1" d="M102.2,20.7c0,0.6,0.2,1.1,0.7,1.4c0.4,0.3,0.6,0.3,0.9-0.1c0.2-0.3,0.4-0.5,0.8-0.6
			c0.1,0,0.1-0.1,0.1-0.1c0.1-0.2,0.4-0.3,0.6-0.5c0.4-0.2,0.7-0.4,1.1-0.6c0.7-0.4,1.4-0.8,2.2-1.2c0.5-0.3,1.1-0.5,1.6-0.8
			c0.2-0.1,0.3-0.3,0.4-0.4c0.1-0.1,0.2-0.2,0.2-0.2c0.4-0.2,0.5-0.3,0.4-0.7c-0.1-0.2,0-0.4,0.1-0.5c0.1,0,0.1-0.1,0.2-0.1
			c0.1-0.1,0.1-0.3-0.1-0.3c-0.1,0-0.3,0-0.4,0c-0.3,0.1-0.6,0.3-1,0.2c-0.1,0-0.2,0.1-0.3,0.2c-0.2,0.2-0.4,0.3-0.7,0.3
			c-1,0.4-2,0.7-2.9,1.4c0,0-0.1,0.1-0.1,0.1c-0.4,0-0.6,0.3-0.8,0.4c-0.6,0.4-1.2,0.8-1.7,1.2c-0.4,0.2-0.7,0.5-1.1,0.8
			C102.2,20.5,102.2,20.6,102.2,20.7z"/>
		<path id="XMLID_2009_" class="st1" d="M110.7,21C110.7,20.9,110.7,20.9,110.7,21c-0.2-0.1-0.4-0.1-0.6,0c-0.6,0.1-1.1,0.2-1.7,0.5
			c-0.4,0.2-0.8,0.4-1.2,0.7c-0.3,0.2-0.7,0.5-1,0.7c-0.2,0.1-0.3,0.3-0.5,0.3c-0.4,0.2-0.7,0.4-1,0.7c-0.2,0.3-0.6,0.5-0.8,0.8
			c-0.2,0.2-0.4,1.1-0.2,1.4c0,0,0,0,0,0c0.2,0.2,0.5,0.4,0.7,0.5c0.2,0.1,0.4,0,0.6-0.3c0.1-0.1,0.1-0.3,0.3-0.4
			c0.3-0.2,0.5-0.6,0.8-0.8c0.4-0.2,0.7-0.5,1-0.8c0.1-0.1,0.2-0.1,0.3-0.2c0.4-0.7,1.2-1,1.8-1.4c0.1,0,0.1,0,0.2-0.1
			c0.2,0,0.3,0,0.5-0.1c0.4,0,0.4-0.1,0.4-0.4c0-0.1,0-0.1,0-0.2C110.6,21.7,110.5,21.3,110.7,21z"/>
		<path id="XMLID_1950_" class="st1" d="M121.8,26.5c0.3,0,0.4,0.1,0.5,0.4c0,0.1,0.1,0.2,0.2,0.3c0.3,0.1,0.7,0.2,1,0.3
			c0.2,0.1,0.4,0,0.4-0.3c0.1-0.2,0.1-0.3,0.1-0.5c0-0.5,0.2-0.9,0.6-1.2c0.1-0.1,0.2-0.2,0.1-0.4c0-0.1-0.1-0.2-0.1-0.3
			c0-0.2-0.1-0.3-0.2-0.4c-0.6-0.5-1.8-0.7-2.6-0.5c-0.5,0.1-0.6,0.5-0.9,0.8c0,0,0,0.1,0,0.2c0.1,0.3,0.2,0.6,0.3,0.9
			c0,0.1,0.1,0.2,0.2,0.2C121.7,26,121.7,26.2,121.8,26.5z"/>
		<path id="XMLID_1949_" class="st1" d="M134.8,20.6C134.8,20.5,134.8,20.5,134.8,20.6C134.8,20.5,134.8,20.5,134.8,20.6
			C134.8,20.5,134.8,20.5,134.8,20.6C134.8,20.6,134.8,20.6,134.8,20.6z"/>
		<path id="XMLID_2073_" class="st0" d="M129.9,31.9c-0.1,0.1-0.1,0.2-0.2,0.2c-0.2,0.1-0.3,0.2-0.3,0.4c0,0.2-0.2,0.3-0.4,0.3
			c-0.4,0-0.8,0.1-1.2,0.1c-0.4,0.1-1.9,0.5-2.2,0.4c-0.3,0-0.6,0.1-0.9,0.2c-0.1-0.1-0.2-0.1-0.4-0.2c-0.3-0.2-0.5-0.2-0.8,0
			c-0.2,0.2-0.4,0.1-0.8-0.2c-0.4,0.2-0.9,0-1.3,0c-0.4,0-0.8-0.1-1.1-0.2c-0.2,0-0.3-0.1-0.4-0.3c-0.1-0.3-0.2-0.4-0.6-0.4
			c-0.3,0-0.6-0.1-0.7-0.5c0-0.1-0.1-0.2-0.2-0.2c-0.1-0.1-0.3-0.1-0.3-0.2c-0.2-0.3-0.4-0.7-0.5-1.1c-0.2-0.5-0.1-1.1-0.4-1.6
			c0-0.1,0-0.2,0-0.2c0-0.1,0-0.3,0-0.4c-0.1,0-0.1,0-0.1,0c-0.1,0.2-0.3,0.6-0.4,0.8c0,0-0.1,0-0.1,0.1c-0.1,0.6-0.6,0.9-0.9,1.4
			c-0.1,0.2-0.2,0.4-0.4,0.6c-0.1,0.1-0.1,0.2-0.1,0.3c0,0.3-0.1,0.4-0.3,0.5c-0.1,0-0.1,0-0.1,0.1c-0.2,0.4-0.7,0.5-0.9,0.9
			c-0.1,0.2-0.2,0.4-0.3,0.5c-0.1,0.2-0.3,0.4-0.4,0.6c-0.1,0.1-0.1,0.2-0.2,0.3c-0.2,0.3-0.3,0.6-0.6,0.9c-0.1,0.1-0.2,0.4-0.3,0.6
			c0,0.1-0.1,0.3-0.1,0.3c-0.4,0.3-0.6,0.8-0.9,1.1c-0.3,0.4-0.6,0.8-0.7,1.4c0,0.1-0.1,0.2-0.2,0.3c-0.1,0.2-0.3,0.3-0.3,0.5
			c-0.2,0.4-0.4,0.8-0.7,1.2c-0.1,0.1-0.2,0.2-0.2,0.4c0,0.1,0,0.2-0.1,0.2c-0.2,0.1-0.3,0.3-0.4,0.6c0,0.1-0.2,0.1-0.2,0.2
			c-0.1,0.1-0.2,0.1-0.3,0.2c-0.2,0.3-0.4,0.6-0.6,0.8c-0.1,0.1-0.4,0.2-0.6,0.2c-0.1,0-0.1-0.2-0.1-0.2c0-0.5,0-0.9,0.3-1.3
			c0.4-0.5,0.7-1,1.1-1.4c0.1-0.1,0.2-0.2,0.2-0.3c0.2-0.3,0.3-0.7,0.4-1c0.3-0.5,0.5-1,0.8-1.4c0.1-0.1,0.2-0.3,0.3-0.4
			c0.1-0.2,0.3-0.4,0.5-0.6c0.3-0.3,0.3-0.6,0-0.8c-0.1-0.1-0.2-0.2-0.4-0.2c-0.5-0.1-1-0.1-1.5,0.1c-0.3,0.1-0.6,0.4-0.9,0.3
			c-0.2,0-0.5,0.4-0.5,0.6c0,0.1,0,0.2,0,0.3c0,0.2-0.2,0.3-0.4,0.4c-0.6,0.1-1.2-0.1-1.8-0.2c-0.1,0-0.2-0.1-0.2-0.1
			c-0.2-0.3-0.5-0.4-0.7-0.4c-0.2-0.1-0.4-0.1-0.5-0.4c-0.1-0.2-0.2-0.2-0.4-0.2c-0.2-0.1-0.4-0.1-0.5-0.3c-0.1-0.1-0.2-0.3-0.2-0.4
			c0-0.3,0-0.6,0-0.9c0-0.3,0-0.5,0.1-0.7c0.1-0.1,0-0.2,0-0.3c0-0.1-0.1-0.2-0.1-0.3c0.1-0.4-0.1-0.7-0.3-1.1
			c-0.2-0.3-0.4-0.6-0.6-1c-0.1-0.1-0.2-0.2-0.2-0.3c-0.1-0.5-0.4-0.8-0.8-1c-0.3-0.2-0.5-0.4-0.7-0.6c-0.2-0.2-0.1-0.5-0.1-0.8
			c0-0.2,0.3-0.2,0.4-0.3c0.7-0.1,1.4,0,1.9,0.4c0.2,0.2,0.4,0.4,0.6,0.6c0.2,0.2,0.3,0.4,0.5,0.6c0.1,0.1,0.3,0.1,0.3,0
			c0.2-0.4,0.7-0.6,0.8-1c0.3-0.2,0.5-0.3,0.8-0.5c0.5-0.3,1-0.6,1.5-0.8c0.1,0,0.1-0.1,0.2-0.1c0.7-0.2,1.3-0.4,1.9-0.7
			c0,0,0.1,0,0.1,0c0.5-0.1,1-0.1,1.5-0.2c0.1,0,0.2,0,0.2,0c0.4,0.1,0.8,0.2,1.1,0.3c0.1,0,0.2,0.1,0.2,0.2
			c0.3,0.5,0.8,0.7,1.3,0.9c0.2,0.1,0.3,0.2,0.3,0.4c0.1,0.5,0.3,1,0.1,1.5c0,0.1,0.1,0.3,0.2,0.6c0.2-0.3,0.3-0.5,0.4-0.7
			c0.3-0.5,0.5-1.1,0.8-1.6c0.2-0.3,0.2-0.7,0.3-1.1c0-0.1,0-0.3-0.1-0.4c-0.2-0.4-0.2-0.7,0.1-1.1c0.1-0.1,0.1-0.2,0.1-0.3
			c0-0.2,0.1-0.4,0.4-0.4c0.2,0,0.5,0,0.7,0.1c0.3,0.1,0.5,0.1,0.7-0.1c0,0,0.1-0.1,0.1-0.1c0.6-0.1,1.1-0.4,1.7-0.1
			c0.1,0,0.2,0.1,0.3,0.1c0.1,0,0.2,0.1,0.2,0.1c0.3,0.3,0.4,1.1,0.2,1.5c-0.2,0.3-0.4,0.6-0.5,0.9c-0.1,0.1-0.1,0.3,0.1,0.4
			c0.3,0.2,0.6,0.4,0.9,0.6c0.4,0.2,0.6,0.5,0.8,0.8c0.2,0.2,0.4,0.4,0.5,0.7c0,0,0,0,0,0c0.4,0.2,0.7,0.4,1.1,0.5
			c0.7,0.1,1.4,0.2,2.1,0.3c0.1,0,0.3,0,0.4,0c0.2,0,0.5,0,0.7,0c0.4,0,1.7-0.5,1.9-0.9c0.1-0.2,0.1-0.4,0.1-0.5c0-0.6,0-1.2,0-1.8
			c0-0.2-0.1-0.4-0.1-0.5c0-0.4-0.1-0.8-0.1-1.2c0-0.1,0.1-0.1,0.1-0.3c0.3,0.1,0.7,0.3,1,0.4c0.1,0,0.1,0.2,0.1,0.3
			c0,0.1,0,0.2,0,0.4c0,0.3-0.2,0.6-0.1,0.8c0.1,0.3,0,0.5,0,0.8c-0.1,0.2,0,0.4,0.3,0.3c0.2,0,0.3,0,0.5,0.1
			c-0.1,0.1-0.3,0.3-0.4,0.4c-0.2,0.2-0.1,0.2,0.1,0.4c0.2,0.2,0.5,0.4,0.7,0.6c0.3,0.4,0.6,0.6,1,0.7c0.3,0.1,0.4,0.2,0.5,0.5
			c0,0.2,0,0.4-0.2,0.5c0,0-0.1,0.1-0.1,0.1c-0.2,0.3-0.5,0.4-0.8,0.7c-0.2,0.2-0.4,0.1-0.5,0c-0.3-0.1-0.5-0.1-0.5,0
			c-0.1,0.2,0,0.3,0.3,0.5C129.6,31.7,129.8,31.8,129.9,31.9z M124.3,32.4c-0.1,0-0.1-0.1-0.1-0.1c0,0-0.1,0-0.1,0.1
			c0,0,0,0.1,0.1,0.1C124.1,32.5,124.2,32.4,124.3,32.4z"/>
		<path id="XMLID_1942_" class="st0" d="M127.9,11.8c-0.2,0-0.4,0-0.6,0c-0.4,0.1-1.2,0.2-1.5,0.3c-0.2,0.1-0.3,0.3-0.5,0.4
			c-0.2,0.1-0.4,0.2-0.6,0.2c-0.2,0.1-0.3,0.2-0.3,0.4c0,0.4,0,0.7,0,1.1c0,0,0,0.1,0,0.1c-0.3,0.3-0.2,0.7-0.1,1
			c0,0.2,0,0.4,0.1,0.6c0,0.4,0.1,0.8,0.1,1.1c0,0.2,0.2,0.3,0.4,0.3c0.3,0,2.5-0.1,2.8-0.1c0.2,0,0.4-0.1,0.5-0.1
			c0.4,0.1,0.8,0.2,1.2,0.3c0.1,0,0.2,0.2,0.3,0.3c-0.3,0.4-0.5,0.7-1,0.7c-0.1,0-0.3,0-0.4-0.1c0,0-0.1-0.1-0.1-0.1
			c-0.1,0-0.3,0-0.3,0.1c0,0.1,0.1,0.2,0.1,0.3c0.1,0.1,0.2,0.1,0.3,0.1c0.1,0.2,0.2,0.4,0.4,0.5c0.1,0.1,0.1,0.3,0,0.4
			c-0.2,0.3-0.3,0.6-0.3,1c0,0.1-0.1,0.2-0.2,0.3c-0.5,0.3-3,0.5-3.6,0.5c-0.1,0-0.3,0-0.4,0.1c-0.5,0.2-0.9,0.3-1.4,0.2
			c-0.3-0.1-0.6-0.1-1,0.1c-0.3,0.1-0.6,0.2-0.9,0.2c-0.2,0-0.4,0.1-0.4,0.3c-0.1,0.2-0.3,0.3-0.5,0.3c-0.1,0-0.3,0-0.4,0
			c-0.1,0-0.2-0.1-0.2-0.1c0,0-0.1-0.1-0.1-0.1c-0.6-0.4-0.7-1-0.7-1.6c0-0.3,0.1-0.7,0.1-1c0-0.3,0-0.5-0.1-0.8
			c0-0.2,0-0.4,0.2-0.4c0.1,0,0.3,0,0.5,0c0.4,0.2,1.1,0.2,1.5-0.1c0.1,0,0.1-0.1,0.2-0.1c0.4,0,0.8-0.1,1.2-0.3
			c0.1-0.1,0.3-0.1,0.4-0.2c0.2-0.1,0.3-0.3,0.3-0.6c0-0.9,0-1.8,0-2.7c0-0.3-0.1-0.6-0.1-0.9c0-0.2-0.1-0.2-0.3-0.2
			c-0.1,0-0.3,0.1-0.4,0.1c-0.2,0.1-0.3,0.2-0.6,0.1c-0.1,0-0.3,0.1-0.3,0.2c-0.2,0.4-1.1,0.6-1.4,0.8c-0.2,0.1-0.4,0.3-0.5,0.6
			c-0.1,0.3-0.2,0.4-0.4,0.4c-0.2,0-0.5,0-0.7,0c-0.2,0-0.4-0.1-0.5-0.3c-0.4-0.4-0.7-0.8-1-1.2c-0.2-0.3-0.5-0.7-0.7-1
			c-0.3-0.4-0.6-1-0.8-1.5c-0.2-0.4,0.1-0.6,0.5-0.6c0.3,0,0.5,0.1,0.8,0.1c0.2,0,0.4,0,0.7,0c0.2,0,0.5,0,0.7-0.2
			c0.1-0.1,0.2-0.1,0.3-0.1c0.2,0,0.3,0,0.5,0.1c0.3,0.1,0.6,0,0.8-0.2c0.1-0.1,0.4-0.1,0.5-0.1c0.2,0,1.1,0,1.3-0.1
			c0.2-0.1,0.4-0.2,0.6-0.4c0.2-0.1,0.4-0.2,0.6-0.2c0.3-0.1,0.4-0.1,0.4-0.4c0,0,0,0,0,0c0-0.7,0-1.4,0-2.1c0-0.6,0-0.6,0.2-1.1
			c-0.4-0.2-0.3-0.7-0.4-1.1c-0.1-0.4,0-0.9-0.3-1.3c-0.1-0.1-0.1-0.4-0.1-0.6c0-0.4,0.1-0.7,0.1-1.1c0.1,0,0.1-0.1,0.2-0.1
			c0.5,0.1,1,0.1,1.5,0.3c0.3,0.2,0.7,0.4,1,0.6c0.2,0.2,0.5,0.2,0.6,0.4c0.1,0.2,0.2,0.3,0.1,0.5c-0.1,0.3-0.2,0.6-0.3,0.8
			c-0.1,0.2-0.2,0.5-0.5,0.6c-0.1,0.1-0.2,0.4-0.1,0.6c0.1,0.3,0,0.6-0.2,0.8c-0.1,0.2-0.2,0.5-0.1,0.7c0.1,0.4,0.1,0.8-0.2,1.1
			c-0.1,0.1-0.1,0.2,0,0.3c0.1,0.1,0.2,0.2,0.3,0.2c0.2,0,0.5,0,0.7-0.1c1.1-0.3,2.7-0.4,3.8-0.5c1-0.1,2,0,2.9,0.3
			c0.4,0.1,0.5,0.3,0.5,0.6c0,0.3-0.3,0.5-0.6,0.6c-0.1,0-0.2,0-0.3,0c-0.2,0-0.4,0.1-0.4,0.4c-0.2,0.6-0.6,0.9-1.2,1.1
			c-0.3,0.1-0.5,0.4-0.7,0.6c-0.2,0.2-0.3,0.4-0.5,0.6c-0.1,0.1-0.1,0.2-0.2,0.2c-0.3,0-0.5,0-0.8-0.1c-0.3-0.1-0.3-0.3-0.1-0.5
			c0.2-0.3,0.4-0.5,0.7-0.8C127.9,11.8,127.9,11.8,127.9,11.8z"/>
		<path id="XMLID_1941_" class="st0" d="M134.1,22.4c0.3,0.7,0.9,0.8,1.5,0.8c0.3,0,0.6,0.1,1,0.2c0.4,0.2,0.8,0.3,1.2,0.5
			c0.5,0.2,1,0.4,1.4,0.8c0.1,0,0.1,0.1,0.2,0.1c0.4,0,0.7,0.3,0.9,0.5c0.1,0.1,0.2,0.2,0.3,0.2c0.5,0,0.8,0.2,1.1,0.5
			c0.2,0.2,0.5,0.3,0.8,0.4c0.4,0.1,0.6,0.3,0.8,0.7c0.1,0.2,0.3,0.4,0.5,0.5c0.1,0.1,0.1,0.1,0.2,0.2c0.1,0,0.1-0.1,0.2-0.1
			c0.2-0.1,0.3,0,0.4,0.2c0.2,0.3,0.4,0.5,0.8,0.7c0.4,0.2,0.6,0.5,1,0.8c0.1,0.1,0.2,0.2,0.3,0.3c0.1,0.1,0.1,0.2,0.2,0.4
			c0.1,0,0.2,0,0.2,0c0.1,0,0.2,0,0.3,0.1c0.2,0.3,0.4,0.5,0.6,0.8c0.1,0.3,0.2,0.6,0.3,0.8c0.1,0.2,0.1,0.4,0.2,0.6
			c-0.2,0.1-0.3,0-0.5,0c-0.4-0.1-0.4-0.1-0.6,0.2c-0.1,0.1-0.3,0.3-0.4,0.3c-0.3,0-0.4,0.1-0.4,0.4c-0.3-0.1-0.6-0.2-0.8,0
			c-0.2,0.2-0.5,0.4-0.5,0.8c-0.1,0.3-0.2,0.5-0.5,0.5c-0.2,0-0.4,0.1-0.6,0.2c-0.4,0.1-0.7,0.1-1-0.2c-0.2-0.1-0.3-0.3-0.4-0.4
			c-0.3-0.3-0.7-0.6-1.1-0.8c-0.1,0-0.2-0.1-0.3-0.2c-0.2-0.4-0.6-0.7-1-0.9c-0.1-0.1-0.2-0.1-0.2-0.2c-0.3-0.5-0.8-0.8-1.2-1.2
			c-0.1-0.1-0.2-0.1-0.3-0.2c-0.2-0.2-0.4-0.4-0.7-0.4c-0.2,0-0.4-0.3-0.6-0.4c-0.1-0.1-0.1-0.1-0.2-0.2c-0.3-0.2-0.6-0.3-0.9-0.5
			c-0.3-0.3-0.7-0.3-1.1-0.2c-0.1,0-0.2,0.1-0.3,0c-0.2-0.2-0.4-0.4-0.6-0.6c-0.1-0.1-0.2-0.2-0.3-0.3c-0.2-0.2-0.4-0.3-0.6-0.6
			c-0.2-0.4-0.6-0.8-0.8-1.2c-0.1-0.1-0.2-0.3-0.3-0.4c-0.1-0.1-0.1-0.3-0.2-0.5c0-0.1-0.1-0.2-0.1-0.3c-0.1-0.4-0.2-0.8-0.3-1.3
			c-0.1-0.3-0.2-0.5-0.3-0.7c-0.2-0.7,0-0.8,0.7-0.8c0.4,0,0.8,0.2,1.2,0.4C133.4,22.7,133.7,22.8,134.1,22.4z"/>
		<path id="XMLID_1937_" class="st0" d="M99,14.9c0.3-0.2,0.6-0.3,0.8-0.4c0.1,0,0.2-0.1,0.3-0.1c0.5,0,0.9,0,1.3-0.2
			c0.4-0.2,1-0.2,1.4-0.5c0,0,0.2,0,0.2,0c0.2,0.2,0.4,0.1,0.5,0c0.3-0.1,0.5-0.2,0.8-0.4c0.1-0.1,0.3-0.1,0.4-0.1
			c0.2,0,0.3,0,0.5,0c0.3,0,0.5,0,0.8-0.2c0.4-0.2,0.8-0.4,1.3-0.4c0.2,0,0.5-0.1,0.7-0.2c0.5-0.1,0.9-0.3,1.4-0.4
			c0.4-0.1,0.5-0.3,0.2-0.7c-0.4-0.4-0.9-0.6-1.4-0.7c-0.4-0.1-0.7-0.1-1.1,0c-0.3,0.1-0.6-0.1-0.7-0.4c-0.3-0.4-0.6-0.6-1-0.9
			c-0.1-0.1-0.2-0.1-0.2-0.2c-0.3-0.3-0.5-0.6-1-0.6c-0.2,0-0.4-0.1-0.7-0.3c0.2-0.1,0.3-0.2,0.3-0.3c0.2-0.2,0.2-0.3,0-0.5
			c-0.1-0.1-0.2-0.2-0.3-0.2c-0.2-0.2-0.1-0.4,0.1-0.5c0.6-0.3,1.2-0.3,1.8-0.4c0.3-0.1,0.6-0.1,0.9-0.1c0.5,0,1-0.1,1.5,0
			c0.4,0,0.6,0.4,0.8,0.8c0.1,0.2,0.2,0.4,0.3,0.7c0.1,0.2,0.2,0.4,0.4,0.4c0.2,0,0.2,0.2,0.3,0.3c0.1,0.2,0.2,0.5,0.4,0.6
			c0.1,0.1,0.1,0.2,0.2,0.3c0.1,0.3,0.1,0.6,0.2,0.9c0.1,0.5,0.3,0.9,0.5,1.3c0.1,0.1,0.2,0.1,0.4,0.2c0.2,0,0.4,0,0.6,0
			c0.2,0,0.3,0.1,0.3,0.3c-0.1,0.4-0.3,0.8-0.5,1.2c0,0.1-0.1,0.1-0.1,0.2c-0.3,0.1-0.6,0.2-0.9,0.3c-0.2,0.1-0.5,0.1-0.7,0.2
			c-0.5,0.2-0.5,0.2-0.7-0.3c-0.2,0.1-0.3,0.2-0.5,0.4c0.1,0.1,0.1,0.2,0.2,0.3c0,0-0.1,0.1-0.1,0.1c-0.1-0.1-0.2-0.2-0.3-0.3
			c-0.1-0.1-0.1-0.3-0.4-0.2c0,0.1,0,0.2,0,0.4c0,0.4,0,0.5-0.4,0.6c-0.3,0.1-0.6,0.3-1,0.2c-0.2,0.5-0.7,0.5-1.1,0.8
			c-0.1,0.1-0.2,0.1-0.2,0.2c-0.1,0.2-0.3,0.2-0.5,0.2c-0.2,0-0.4,0-0.5,0.2c0,0,0,0,0,0c-0.3,0.1-0.5,0.4-0.7,0.6
			c-0.2,0.2-0.4,0.4-0.5,0.7c0,0.1-0.1,0.2-0.2,0.2c-0.1,0.1-0.2,0.2-0.2,0.3c-0.3,0.6-0.6,0.6-1.1,0.2c-0.6-0.5-1.1-1.1-1.7-1.7
			c-0.2-0.3-0.5-0.5-0.6-0.9C99.3,15.3,99.2,15.1,99,14.9z"/>
		<path id="XMLID_1907_" class="st0" d="M102.2,20.7c0,0,0.1-0.1,0.1-0.2c0.4-0.3,0.7-0.5,1.1-0.8c0.6-0.4,1.2-0.8,1.7-1.2
			c0.3-0.2,0.5-0.4,0.8-0.4c0,0,0.1-0.1,0.1-0.1c0.8-0.7,1.9-1,2.9-1.4c0.2-0.1,0.5-0.2,0.7-0.3c0.1-0.1,0.2-0.2,0.3-0.2
			c0.4,0,0.7-0.1,1-0.2c0.1,0,0.3-0.1,0.4,0c0.2,0,0.2,0.2,0.1,0.3c0,0.1-0.1,0.1-0.2,0.1c-0.1,0.1-0.2,0.3-0.1,0.5
			c0.1,0.4,0,0.5-0.4,0.7c-0.1,0-0.2,0.1-0.2,0.2c-0.1,0.1-0.3,0.3-0.4,0.4c-0.5,0.3-1.1,0.5-1.6,0.8c-0.7,0.4-1.4,0.8-2.2,1.2
			c-0.4,0.2-0.7,0.4-1.1,0.6c-0.2,0.1-0.5,0.2-0.6,0.5c0,0.1-0.1,0.1-0.1,0.1c-0.4,0.1-0.6,0.4-0.8,0.6c-0.3,0.4-0.5,0.4-0.9,0.1
			C102.4,21.7,102.2,21.3,102.2,20.7z"/>
		<path id="XMLID_1906_" class="st0" d="M110.7,21c-0.2,0.3-0.1,0.8-0.4,1.1c0,0,0,0.1,0,0.2c0,0.4-0.1,0.4-0.4,0.4
			c-0.2,0-0.3,0-0.5,0.1c-0.1,0-0.1,0-0.2,0.1c-0.6,0.4-1.4,0.7-1.8,1.4c-0.1,0.1-0.2,0.1-0.3,0.2c-0.3,0.3-0.6,0.6-1,0.8
			c-0.4,0.2-0.5,0.6-0.8,0.8c-0.1,0.1-0.2,0.3-0.3,0.4c-0.1,0.3-0.3,0.4-0.6,0.3c-0.3-0.1-0.5-0.3-0.7-0.5c0,0,0,0,0,0
			c-0.1-0.3,0-1.2,0.2-1.4c0.3-0.2,0.6-0.5,0.8-0.8c0.3-0.3,0.6-0.5,1-0.7c0.2-0.1,0.3-0.2,0.5-0.3c0.3-0.2,0.7-0.5,1-0.7
			c0.4-0.2,0.8-0.5,1.2-0.7c0.5-0.3,1.1-0.4,1.7-0.5C110.3,20.9,110.5,20.9,110.7,21C110.7,20.9,110.7,20.9,110.7,21z"/>
		<path id="XMLID_1905_" class="st0" d="M121.8,26.5c-0.1-0.3-0.1-0.5-0.3-0.6c-0.1,0-0.1-0.1-0.2-0.2c-0.1-0.3-0.2-0.6-0.3-0.9
			c0-0.1,0-0.2,0-0.2c0.2-0.3,0.4-0.7,0.9-0.8c0.8-0.2,2,0,2.6,0.5c0.1,0.1,0.2,0.2,0.2,0.4c0,0.1,0,0.2,0.1,0.3
			c0.1,0.2,0,0.3-0.1,0.4c-0.4,0.3-0.6,0.7-0.6,1.2c0,0.2-0.1,0.4-0.1,0.5c-0.1,0.2-0.2,0.3-0.4,0.3c-0.3-0.1-0.7-0.2-1-0.3
			c-0.1,0-0.2-0.2-0.2-0.3C122.2,26.6,122.1,26.4,121.8,26.5z"/>
		<path id="XMLID_1904_" class="st0" d="M134.8,20.6C134.8,20.6,134.8,20.6,134.8,20.6C134.8,20.5,134.8,20.5,134.8,20.6
			C134.8,20.5,134.8,20.5,134.8,20.6C134.8,20.5,134.8,20.5,134.8,20.6z"/>
		<path id="XMLID_10_" class="st0" d="M124.3,32.4c-0.1,0-0.1,0.1-0.2,0.1c0,0,0,0-0.1-0.1c0,0,0.1-0.1,0.1-0.1
			C124.2,32.3,124.2,32.4,124.3,32.4z"/>
	</g>
</g>
</svg>
