<?xml version="1.0" encoding="utf-8"?>
<!-- Generator: Adobe Illustrator 21.0.0, SVG Export Plug-In . SVG Version: 6.00 Build 0)  -->
<svg version="1.1" id="圖層_1" xmlns:sketch="http://www.bohemiancoding.com/sketch/ns"
	 xmlns="http://www.w3.org/2000/svg" xmlns:xlink="http://www.w3.org/1999/xlink" x="0px" y="0px" viewBox="0 0 309 48"
	 style="enable-background:new 0 0 309 48;" xml:space="preserve">
<style type="text/css">
	.st0{fill-rule:evenodd;clip-rule:evenodd;fill:#FFE000;}
	.st1{fill:#FFE000;}
	.st2{fill:#231815;}
	.st3{font-family:'ARMaoKaiB5-Heavy-B5pc-H';}
	.st4{font-size:16.25px;}
	.st5{letter-spacing:3;}
</style>
<title>logo-zh</title>
<desc>Created with Sketch.</desc>
<g id="XMLID_2039_">
	<path id="XMLID_2096_" class="st0" d="M49.6,37.3c-0.1-0.2-0.1-0.4-0.1-0.5c0.1-0.2,0.2-0.5,0.3-0.7c0.1-0.1,0.2-0.2,0.3-0.3
		c0.2-0.2,0.5-0.3,0.8-0.4c0.1-0.1,0.2-0.2,0.3-0.2c0.1-0.1,0.1-0.1,0.2-0.2c0.1,0,0.2-0.1,0.2-0.2c0-0.2,0.1-0.3,0.3-0.4
		c0.2-0.1,0.3-0.2,0.4-0.4c0-0.1,0.2-0.1,0.3-0.1c0.2,0,0.4,0,0.6-0.1c0,0,0.1-0.1,0.1-0.1c0.3-0.1,0.7-0.2,1-0.3
		c0.1,0,0.2-0.1,0.2-0.1c0.1-0.1,0.1-0.2,0.2-0.2c0.2-0.1,0.4-0.2,0.6-0.3c0.1-0.1,0.2-0.2,0.3-0.2c0.1-0.1,0.2-0.1,0.2-0.1
		c0.2,0,0.3-0.1,0.4-0.3c0,0,0.1-0.1,0.1-0.1c0.2,0,0.3-0.1,0.5-0.2c0.1-0.1,0.3-0.1,0.5-0.3c0.2-0.2,0.5-0.4,0.8-0.5
		c0.2-0.1,0.3-0.2,0.5-0.4c0.2-0.2,0.6-0.2,0.8-0.4c0.1-0.1,0.2-0.1,0.3-0.2c0-0.1,0.1-0.1,0.1-0.1c0.1-0.1,0.2-0.1,0.3-0.3
		c0.1-0.2,0.3-0.3,0.5-0.4c0.2-0.1,0.4-0.2,0.6-0.3c0,0,0.1,0,0.1-0.1c0.1-0.2,0.3-0.4,0.6-0.5c0.1-0.1,0.1-0.2,0-0.3
		c0,0-0.1,0-0.1,0c-0.4-0.1-0.7-0.4-0.9-0.7c-0.2-0.3-0.4-0.4-0.7-0.6c-0.1-0.1-0.2-0.2-0.3-0.2c-0.1-0.1-0.3-0.2-0.4-0.3
		c0,0-0.1-0.1-0.1-0.1c-0.1-0.2-0.2-0.2-0.4-0.2c-0.1,0-0.2,0-0.3,0.1c-0.4,0.2-0.7,0.4-1,0.7c-0.1,0.1-0.2,0.2-0.3,0.3
		c-0.2-0.1-0.4-0.3-0.4-0.6c0-0.2-0.1-0.3-0.2-0.3c-0.1,0-0.3,0-0.4,0c-0.1,0-0.3,0-0.4,0c-0.2-0.1-0.4,0-0.6,0.1
		c-0.2,0.2-0.4,0.3-0.6,0.4c-0.3,0.1-0.5,0.3-0.7,0.5c-0.3,0.1-0.5,0.3-0.7,0.4c-0.1,0.1-0.2,0.1-0.4,0.1c-0.2,0-0.4,0.1-0.5,0.3
		c0,0.1-0.1,0.1-0.2,0.1c-0.1,0-0.2,0.1-0.2,0.2c0,0.1-0.1,0.2-0.2,0.2c-0.2,0.1-0.4,0.2-0.6,0.2c-0.1,0-0.2,0.1-0.2,0.2
		c-0.2,0.2-0.4,0.4-0.6,0.5c-0.1,0.1-0.2,0.2-0.4,0.1c-0.1,0-0.2,0-0.2,0c-0.2,0.1-0.4,0-0.6-0.1c-0.1-0.1-0.3-0.1-0.5-0.1
		c-0.1,0-0.2,0-0.3-0.1c-0.1-0.2-0.2-0.4-0.3-0.5c-0.2-0.2-0.3-0.4-0.5-0.6c-0.2-0.2-0.3-0.3-0.5-0.5c-0.1-0.1-0.1-0.2-0.1-0.2
		c-0.1-0.2-0.1-0.5-0.2-0.7c0-0.1-0.1-0.1,0-0.2c0.1-0.2,0-0.5,0-0.8c0-0.1,0.1-0.2,0.1-0.2c0.4-0.2,0.8-0.4,1.3-0.3
		c0.1,0,0.2,0,0.2,0c0.4,0.2,0.9,0.1,1.2-0.3c0.1-0.1,0.1-0.3,0-0.4c-0.2-0.2-0.2-0.4,0-0.6c0,0,0-0.1,0-0.2c0-0.2,0-0.4,0-0.6
		c-0.3-0.1-0.3-0.3-0.2-0.6c0-0.1,0-0.2-0.1-0.4c0-0.1-0.1-0.2-0.1-0.3c0-0.1,0-0.1,0-0.2c-0.1-0.2-0.2-0.4-0.1-0.7
		c0.1-0.2-0.1-0.3-0.2-0.4c-0.3-0.3-0.6-0.6-0.7-1c0-0.1-0.1-0.1-0.2-0.2c-0.2-0.2-0.4-0.4-0.5-0.8c0-0.2,0-0.3,0.2-0.4
		c0.3-0.1,0.3-0.2,0.1-0.4c-0.1-0.2-0.2-0.4-0.4-0.6c0-0.1-0.1-0.2-0.2-0.2c-0.3-0.1-0.4-0.3-0.5-0.6c-0.1-0.1,0-0.2,0-0.3
		c0.1-0.1,0.2-0.2,0.4-0.2c0.3-0.1,0.5-0.2,0.8-0.2c0.4-0.1,0.7-0.2,1.1-0.2c0.2,0,0.4-0.1,0.6-0.1c0.3-0.1,0.7-0.1,1-0.2
		c0,0,0.1,0,0.1,0c0.4,0.2,0.8,0.3,1.1,0.6c0.2,0.2,0.2,0.4,0.1,0.6c-0.1,0.1-0.2,0.2-0.3,0.3c-0.1,0.1-0.2,0.2-0.1,0.3
		c0.1,0.1,0.2,0.1,0.3,0.1c0.3-0.1,0.5-0.2,0.8-0.3c0.1-0.1,0.3-0.1,0.4-0.2c0.4-0.2,0.9-0.3,1.3-0.6c0,0,0,0,0.1,0
		c0.5-0.1,1-0.5,1.5-0.7c0.3-0.1,0.5-0.1,0.8-0.1c0.2,0,0.3,0,0.4-0.1c0.2-0.2,0.4-0.2,0.6-0.2c0.2,0,0.5,0,0.7-0.1
		c0.1,0,0.2,0,0.2,0c0.3,0.2,0.5,0.5,0.8,0.7c0,0,0.1,0,0.1,0.1c0.2,0.4,0.6,0.8,0.9,1.1c0,0,0.1,0.1,0.2,0.1
		c0.2,0.1,0.3,0.2,0.3,0.4c0,0.1,0.1,0.2,0.2,0.3c0.2,0.2,0.1,0.7-0.1,0.8c-0.2,0.1-0.4,0.3-0.5,0.5c0,0.1-0.1,0.2-0.2,0.2
		c-0.2,0.3-0.4,0.5-0.6,0.8c-0.1,0.2-0.3,0.5-0.4,0.8c-0.1,0.3-0.2,0.7-0.3,1c-0.1,0.2,0,0.4,0.2,0.5c0.3,0.2,0.5,0.3,0.8,0.5
		c0.4,0.2,0.8,0.4,1,0.8c0.1,0.1,0.2,0.2,0.3,0.1c0.4-0.1,0.7-0.2,1.1-0.3c0.3-0.1,0.6-0.2,0.9-0.3c0.1,0,0.1,0,0.2-0.1
		c0.7-0.3,1.4-0.5,2.1-0.9c0.4-0.2,0.7-0.3,1.1-0.5c0.2-0.1,0.5-0.2,0.7-0.3c0.2-0.1,0.5-0.2,0.7-0.3c0.1-0.1,0.2-0.2,0.2-0.3
		c0-0.4,0-0.9,0-1.3c0,0,0,0,0-0.1c-0.1-0.5-0.1-1.1-0.1-1.6c0-0.4,0-0.9,0-1.3c0-0.2,0-0.3,0-0.5c0-0.2-0.1-0.2-0.3-0.2
		c-0.4,0.2-0.9,0.3-1.3,0.5c-0.1,0-0.1,0.1-0.2,0.1c-0.2,0.3-0.5,0.5-0.7,0.7c-0.1,0.1-0.2,0.2-0.2,0.3c0,0,0,0,0,0.1
		c-0.1,0.5-0.6,0.8-1.1,0.6c-0.2-0.1-0.4-0.1-0.6-0.3c-0.1-0.1-0.3-0.1-0.5-0.1c-0.1,0-0.3,0-0.3-0.2c-0.1-0.4-0.4-0.6-0.8-0.7
		c-0.3-0.1-0.4-0.2-0.6-0.5c-0.1-0.2-0.2-0.4-0.3-0.6c-0.2-0.2-0.1-0.4,0.2-0.5c0.2,0,0.3-0.1,0.4-0.2c0,0,0.1-0.1,0.2-0.1
		c0.1,0,0.1,0,0.2-0.1c0.2-0.2,0.4-0.3,0.7-0.1c0,0,0,0,0.1,0c0.3-0.1,0.6-0.1,0.9-0.2c0.1,0,0.1,0,0.2-0.1c0.3-0.1,0.3-0.1,0.5-0.3
		c0,0,0,0,0.1,0c0.3,0,0.7,0.1,1-0.1c0.5,0,0.9-0.3,1.4-0.4c0.3-0.1,0.6-0.2,0.9-0.4c0.2-0.1,0.2-0.3,0.2-0.4
		c-0.1-0.6-0.1-1.2-0.2-1.8c-0.1-0.3-0.2-0.5-0.1-0.8c0,0,0-0.1,0-0.1c-0.2-0.2-0.2-0.6-0.3-0.8c-0.1-0.3-0.1-0.6-0.4-0.9
		c0,0,0-0.1-0.1-0.2c-0.1-0.1-0.1-0.3-0.2-0.4c0,0-0.1-0.1-0.1-0.1c-0.1-0.2-0.1-0.4-0.3-0.5c-0.1-0.1-0.1-0.6,0.1-0.7
		c0.1-0.1,0.3-0.3,0.5-0.3c0.2,0,0.4,0,0.6,0c0.1,0,0.2,0,0.2,0c0.4,0.1,0.7,0.1,1.1,0.2c0.3,0,0.5,0,0.8,0.1
		c0.2,0.1,0.4,0.2,0.7,0.3C71,7,71.1,7.1,71.1,7.4c0,0.1,0,0.1,0.1,0.1c0.1,0.3,0.1,0.4-0.1,0.6c-0.2,0.2-0.4,0.4-0.5,0.6
		c-0.1,0.1-0.2,0.2-0.2,0.4c0,0.2-0.1,0.4-0.1,0.6c-0.1,0.4,0,0.8,0,1.2c0,0.1,0,0.2,0,0.3c0,0.3,0.1,0.6,0.1,1
		c0,0.1,0.1,0.2,0.3,0.2c0.1,0,0.2,0,0.3,0c0.3-0.1,0.5-0.2,0.7-0.3c0.2-0.1,0.5-0.1,0.7-0.1c0.2-0.1,0.5-0.2,0.7-0.2
		c0.3,0,0.6-0.1,0.9,0c0.6,0.1,1.1,0.4,1.5,0.7c0.1,0.1,0.2,0.1,0.2,0.2c0.1,0.1,0.1,0.3,0,0.5c-0.1,0.2-0.3,0.5-0.6,0.6
		c-0.2,0.1-0.3,0.2-0.4,0.4c-0.2,0.3-0.5,0.4-0.8,0.4c-0.2,0-0.4,0-0.6,0.1c-0.2,0-0.4,0-0.6,0c-0.5-0.2-1-0.1-1.5,0.2
		c-0.1,0.1-0.3,0.1-0.5,0.2c-0.3,0.1-0.4,0.1-0.4,0.4c0,0.5-0.1,0.9-0.1,1.4c0,0.1,0,0.2,0,0.3c-0.1,0.3,0,0.5,0,0.7
		c0.1,0.2,0.1,0.4,0,0.6c0,0.1,0,0.1,0,0.2c0,0.2,0,0.3,0,0.5c0,0.1,0,0.1,0,0.2c0,0.4,0,0.7,0,1.1c0,0.1,0.1,0.2,0.2,0.2
		c0.3,0.1,0.6-0.1,0.9-0.1c0.2,0,0.4-0.1,0.6-0.1c0.1,0,0.2,0,0.3-0.1c0.5-0.2,0.9-0.3,1.4-0.5c0.4-0.1,0.8-0.2,1.2-0.3
		c0.3-0.1,0.5-0.2,0.8-0.3c0.2-0.1,0.3-0.1,0.5-0.1c0.4-0.1,0.7-0.2,1.1-0.4c0,0,0.1,0,0.1-0.1c0.1-0.3,0.4-0.5,0.4-0.8
		c0-0.2,0.1-0.3,0.2-0.3c0.1,0,0.1-0.1,0.2-0.2c0.1-0.1,0.3-0.2,0.5-0.1c0.2,0.1,0.3,0,0.4,0c0.3-0.1,0.6,0,0.7,0.3
		c0,0.1,0.1,0.2,0.2,0.2c0.4,0.3,0.8,0.5,1.1,0.9c0.3,0.3,0.6,0.6,0.6,1.1c0,0,0,0,0,0.1C82,20,82,20,81.5,20.1
		c-0.3,0.1-0.5,0.1-0.7,0.4c-0.1,0.2-0.4,0.3-0.6,0.5c-0.1-0.2-0.4-0.2-0.5-0.4c0-0.1-0.2-0.1-0.4-0.1c-0.2,0-0.3,0-0.4-0.1
		c-0.1-0.1-0.3-0.1-0.4,0c-0.1,0.1-0.2,0.1-0.4,0c-0.1,0-0.2,0-0.3,0c-0.2,0-0.4,0-0.6,0c-0.2,0-0.3,0-0.4,0.1c0,0-0.1,0.1-0.2,0.1
		c-0.3-0.1-0.5,0.1-0.7,0.2c-0.1,0-0.3,0-0.4,0.1c-0.2,0-0.4,0.1-0.6,0.2c-0.2,0.1-0.4,0.2-0.6,0.2c-0.7,0.2-1.5,0.4-2.2,0.6
		c-0.1,0-0.1,0.1-0.2,0.1c-0.2,0.1-0.3,0.2-0.5,0.2c-0.3,0.1-0.4,0.2-0.5,0.5c0,0.3-0.1,0.7,0,1c0.1,0.5,0.2,1,0.5,1.4
		c0.2,0.2,0.3,0.6,0.1,0.9c-0.2,0.3-0.3,0.6-0.5,0.9c0,0-0.1,0.1-0.1,0.1c0,0.4-0.2,0.7-0.1,1.1c0,0.4-0.1,0.7,0,1.1
		c-0.2,0.3,0,0.7,0,1c0,0.3,0,0.7,0,1c0,0.1,0,0.2,0,0.3c0.2,0.3,0.1,0.7,0.1,1c0,0.2-0.1,0.5,0.1,0.7c0,0.1,0,0.1,0,0.2
		c-0.1,0.4-0.1,0.7,0,1.1c0,0.2,0,0.5,0,0.8c0,0.1,0,0.2,0,0.3c0,0.2,0,0.3-0.3,0.3c-0.1,0-0.2,0.1-0.3,0.2
		c-0.2,0.2-0.3,0.3-0.4,0.5c-0.1,0.1-0.2,0.1-0.2,0.2c-0.1,0.1-0.1,0.1-0.2,0.2c-0.1,0.1-0.2,0.2-0.3,0.3c-0.2,0.2-0.4,0.1-0.5-0.1
		c-0.1-0.1-0.1-0.2-0.2-0.2c-0.2,0-0.4-0.2-0.6-0.3c-0.1-0.1-0.3-0.2-0.4-0.2c-0.1-0.1-0.2-0.1-0.2-0.2c0-0.2-0.1-0.3-0.3-0.3
		c-0.1,0-0.1-0.2-0.2-0.2c0-0.1,0-0.3,0-0.4c0-0.2-0.1-0.4-0.2-0.5c-0.1-0.1-0.1-0.2-0.1-0.3c-0.1-0.1-0.3-0.1-0.5-0.2
		c-0.2-0.1-0.1-0.3-0.2-0.5c-0.1-0.1-0.3-0.1-0.4-0.2c-0.1-0.1-0.2-0.2-0.2-0.3c-0.2-0.3-0.4-0.6-0.7-0.8c-0.3-0.2-0.5-0.4-0.6-0.8
		c0-0.2-0.1-0.5-0.1-0.7c0-0.1,0-0.1,0-0.2c-0.1-0.2-0.2-0.3-0.3-0.1c-0.1,0.1-0.2,0.2-0.4,0.2c-0.1,0-0.2,0.1-0.2,0.1
		c-0.2,0.2-0.4,0.4-0.7,0.3c0,0-0.1,0-0.1,0c-0.1,0.2-0.4,0.2-0.5,0.4c-0.2,0.1-0.4,0.2-0.6,0.4c0,0-0.1,0-0.2,0
		c-0.3,0-0.3,0-0.4,0.3c-0.1,0.2-0.2,0.3-0.3,0.4c-0.1,0.1-0.2,0.2-0.4,0.3c-0.2-0.1-0.4,0-0.5,0.1c-0.2,0.2-0.3,0.4-0.7,0.3
		c-0.2,0-0.3,0.1-0.4,0.2C57.5,33.9,57.3,34,57,34c-0.1,0-0.2,0-0.3,0.1c-0.2,0.3-0.6,0.5-1,0.6c-0.1,0-0.2,0.1-0.3,0.2
		c-0.4,0.2-0.7,0.6-1.2,0.6c-0.1,0-0.1,0-0.2,0.1c-0.3,0.1-0.5,0.3-0.8,0.4c-0.1,0-0.2,0-0.2-0.1c-0.1-0.1-0.2,0-0.3,0
		c-0.2,0.2-0.5,0.3-0.8,0.3c-0.3,0-0.6,0.2-0.8,0.5c-0.1,0.1-0.2,0.1-0.3,0.2c-0.1,0-0.2,0-0.4,0c-0.3,0-0.5,0-0.7,0.3
		C49.8,37.2,49.7,37.2,49.6,37.3z M53.2,24.3c0-0.1,0.1-0.2,0.1-0.4c0-0.2,0.2-0.2,0.3-0.2c0.2,0.1,0.4,0,0.7-0.1
		c0.1,0,0.3-0.1,0.3-0.1c0.1-0.1,0.2-0.1,0.4-0.1c0.3,0,0.6-0.1,0.8-0.2c0.2-0.1,0.3-0.2,0.5-0.2c0.1,0,0.2-0.1,0.2-0.1
		c0.1-0.1,0.2-0.1,0.3-0.1c0.2,0,0.2,0,0.2-0.2c0-0.1,0-0.2,0-0.3c0.2-0.3,0.1-0.7,0.1-1.1c0-0.1-0.1-0.3-0.1-0.3
		c-0.3-0.2-0.4-0.6-0.7-0.9c-0.1-0.1-0.1-0.3-0.2-0.3c-0.2-0.1-0.2-0.3-0.2-0.5c0-0.1,0-0.2,0.1-0.3c0.2-0.1,0.2-0.3,0.2-0.5
		c0-0.1,0-0.1,0-0.2c0-0.2,0-0.3-0.3-0.2c-0.1,0-0.2,0.1-0.3,0.1c-0.1,0.1-0.3,0.1-0.4,0.2c-0.2,0.1-0.4,0.1-0.6,0.3
		c-0.3,0.3-0.6,0.4-0.9,0.6c-0.1,0.1-0.3,0.2-0.4,0.3c-0.3,0.3-0.6,0.5-0.9,0.7c-0.2,0.1-0.3,0.3-0.5,0.4c0,0,0,0.1,0,0.1
		c0,0.3-0.1,0.5-0.1,0.8c0,0,0,0.1-0.1,0.1c-0.2,0.1-0.2,0.3-0.1,0.5c0.2,0.3,0.1,0.7-0.2,0.9c-0.1,0.1-0.1,0.2-0.1,0.4
		c0,0.4,0.3,0.7,0.4,1.2c0.2,0,0.3-0.1,0.5-0.1c0.1,0,0.1-0.1,0.2-0.1C52.7,24.3,52.9,24.3,53.2,24.3z M67.9,27.7
		c-0.5,0.2-0.7,0.6-0.8,1.1c0,0.1,0,0.1-0.1,0.2C67,29.2,67,29.3,67,29.5c0,0.2,0,0.3,0.1,0.4c0,0,0,0.1,0,0.2c0,0.1,0,0.2,0,0.3
		c0.1,0.2,0.1,0.3,0,0.5c-0.1,0.2,0,0.3,0.1,0.4c0.1,0.1,0.1,0.2,0.2,0.3c0.1,0.2,0.4,0.5,0.6,0.6c0.1,0.1,0.2,0.1,0.4,0.1
		c0.1-0.1,0.1-0.2,0.1-0.3c0-0.1,0-0.3,0-0.4c0-0.4,0-0.7,0-1.1c0-0.6,0-1.1-0.1-1.7C68.5,28.4,68.3,28,67.9,27.7z M65,26.4
		c0.3-0.2,0.6-0.4,0.8-0.7c0.1-0.1,0.2-0.3,0.4-0.3c0.3-0.2,0.5-0.4,0.7-0.7c0.1-0.1,0.2-0.3,0.3-0.4c0.2-0.2,0.4-0.5,0.7-0.7
		c0,0,0-0.1,0-0.1c-0.1-0.1-0.2,0-0.4,0c-0.1,0-0.2,0.1-0.3,0.1c-0.3,0.2-0.7,0.2-0.9,0.6c0,0-0.1,0-0.1,0.1
		c-0.2,0.1-0.4,0.2-0.6,0.2c0,0-0.1,0.1-0.1,0.1c0,0.2-0.2,0.4-0.3,0.5c-0.1,0.1-0.1,0.2-0.1,0.3c0,0.2,0,0.4-0.1,0.5
		C64.9,26,64.9,26.1,65,26.4z"/>
	<path id="XMLID_2049_" class="st0" d="M79.4,30.5c-0.1,0.2-0.1,0.5,0.1,0.7c0.1,0.1,0.2,0.2,0.1,0.3c-0.1,0.1-0.2,0.1-0.3,0.1
		c-0.2-0.1-0.5-0.1-0.7,0.1c-0.2-0.1-0.5-0.3-0.7-0.4c-0.1,0.2-0.2,0.4-0.3,0.6c-0.1-0.1-0.1-0.1-0.1-0.2c0-0.2-0.1-0.2-0.3-0.3
		c-0.6-0.1-1-0.4-1.5-0.7c-0.1,0-0.1-0.1-0.2-0.2c-0.2-0.2-0.4-0.5-0.6-0.7c-0.1-0.1-0.1-0.1-0.2-0.1c-0.1-0.1-0.3-0.2-0.3-0.3
		c-0.1-0.2-0.2-0.4-0.4-0.6c-0.2-0.3-0.4-0.6-0.5-0.9c0-0.1,0-0.1-0.1-0.2c-0.2-0.2-0.1-0.4-0.2-0.6c-0.1-0.3-0.1-0.7-0.4-1
		c-0.3-0.2-0.2-0.5-0.1-0.9c0.2-0.6,0.7-0.8,1.1-1.1c0.1-0.1,0.2-0.2,0.3-0.2c0.3-0.2,0.6-0.2,1-0.1c0.1,0,0.2,0,0.3,0
		c0.2-0.1,0.3-0.1,0.4,0.1c0.1,0.2,0.3,0.2,0.5,0.2c0,0,0.1,0,0.1,0c0.3,0.1,0.6,0.2,0.8,0.4c0.1,0.1,0.2,0.2,0.3,0.2
		c0.2,0,0.4,0.1,0.6,0.2c0,0,0.1,0,0.2,0.1c0.2,0.1,0.4,0.1,0.7,0.2c0.1,0,0.1,0.1,0.2,0.2c0.1,0.2,0.3,0.4,0.6,0.5
		c0.3,0.1,0.4,0.3,0.6,0.5c0.3,0.3,0.5,0.5,0.9,0.6c0.1,0.1,0.3,0.1,0.4,0.2c0.1,0.1,0.3,0.3,0.3,0.4c0.1,0.3,0.2,0.7,0,0.9
		c-0.2,0.3-0.1,0.5,0,0.8c0,0.1,0,0.1,0.1,0.1c0,0.1,0,0.2-0.1,0.3c-0.4,0.2-0.8,0.3-1.2,0.5c-0.1,0.1-0.3,0.2-0.4,0.2
		C79.9,30.4,79.7,30.4,79.4,30.5z"/>
	<g id="XMLID_2063_">
		<path id="XMLID_2086_" class="st0" d="M42.7,32.7c-0.3,0.2-0.4,0.6-0.6,1c0,0.1-0.1,0.2-0.1,0.2c-0.4,0.2-0.7,0.5-1.1,0.5
			c-0.3,0-0.7,0-1,0.1c-0.2,0.1-0.5,0.3-0.6,0.6c-0.1,0.4-0.2,0.8-0.3,1.1c-0.1,0.3-0.1,0.4-0.3,0.6c-0.3,0-0.5,0.1-0.7,0
			c-0.5-0.1-0.8,0.1-1.2,0.3c-0.1,0-0.2,0.1-0.3,0.1c-0.2,0-0.3,0.1-0.3,0.2c0,0.1-0.1,0.1-0.2,0.2c-0.3,0.3-0.4,0.3-0.6,0
			c-0.2-0.2-0.3-0.4-0.4-0.6c0-0.1-0.1-0.2-0.2-0.2c-0.2-0.1-0.8,0-1,0.2c-0.1,0.2-0.3,0.2-0.5,0.2c-0.1,0-0.2,0.1-0.3,0.1
			c-0.2,0.2-0.4,0.3-0.7,0.4c-0.3,0.1-0.6,0.3-0.9,0.4c-0.1,0-0.2,0.1-0.2,0.1c-0.1,0-0.2,0-0.2-0.1c0-0.1,0-0.2,0.1-0.3
			c0.1-0.1,0.2-0.1,0.3-0.2c0.2-0.1,0.4-0.2,0.5-0.3c0.3-0.2,0.7-0.4,1-0.6c0.1-0.1,0.2-0.1,0.3-0.2c0.2-0.2,0.4-0.4,0.6-0.7
			c0,0,0-0.1,0.1-0.2c-0.2-0.1-0.4-0.1-0.6,0.1c-0.1,0.1-0.3,0.2-0.5,0.3c-0.1,0-0.3,0.1-0.4,0.2c-0.5,0.2-0.9,0.4-1.3,0.6
			c-0.1,0-0.1,0.1-0.2,0.1c-0.1,0.1-0.2,0.2-0.2,0.2c-0.4,0-0.6,0.3-1,0.4c-0.1,0-0.2,0.1-0.3,0.1c-0.3,0-0.6,0.2-0.9,0.3
			c-0.3,0.1-0.7,0.2-1,0.3c-0.2,0.1-0.3,0-0.4,0.3c-0.2,0-0.5-0.1-0.7,0.1c-0.1,0-0.2,0.1-0.2,0c-0.2-0.1-0.3,0-0.5,0.1
			c-0.1,0.1-0.3,0.1-0.4,0.2c-0.1,0-0.1,0.1-0.2,0.1c-0.1,0.1-0.2,0.1-0.3,0.2c-0.2,0.1-0.4,0.2-0.6,0.3c-0.2,0.2-0.5,0.3-0.8,0.3
			c-0.3,0-0.6,0.1-0.8,0.3c-0.1,0-0.1,0.1-0.1,0.2c-0.1,0.4-0.5,0.7-0.9,0.8c-0.1,0-0.3,0.1-0.3,0.2c0,0.2-0.1,0.3-0.3,0.3
			c-0.2,0-0.4-0.1-0.5-0.3c0-0.1-0.1-0.2-0.2-0.3c0,0-0.1,0-0.1,0c-0.1,0.2-0.1,0.5-0.2,0.8c-0.1,0-0.2,0-0.3,0
			c-0.2,0-0.3,0.1-0.4,0.3c-0.1,0.1-0.2,0.2-0.3,0.3c-0.1,0.1-0.2,0.2-0.3,0.3c-0.1,0.3-0.3,0.4-0.5,0.4c0,0-0.1,0-0.1,0
			c-0.3,0-0.5,0.1-0.7,0.3c-0.3,0.4-0.5,0.4-0.9,0c-0.1-0.1-0.1-0.1-0.2-0.2c-0.2-0.4-0.5-0.4-0.9-0.5c-0.2,0-0.3,0-0.5-0.1
			c-0.3-0.1-0.7-0.3-0.7-0.7c0-0.2-0.1-0.4-0.3-0.5c-0.1,0-0.1-0.1-0.1-0.1c-0.2-0.3-0.4-0.6-0.7-0.8c-0.3-0.2-0.3-0.5-0.4-0.7
			c-0.1-0.1-0.1-0.3-0.2-0.4c0-0.2,0-0.4,0.1-0.5c0.2-0.2,0.3-0.5,0.3-0.7c0.1-0.2,0.2-0.3,0.4-0.3c0.2,0,0.4,0,0.6-0.1
			c0.1,0,0.2,0,0.3,0c0.1,0,0.3,0,0.4,0c0.1,0,0.2,0.1,0.3,0.1c0.2,0.1,0.3,0.1,0.5,0c0.2-0.1,0.4-0.2,0.7-0.2
			c0.1,0,0.3-0.1,0.4-0.1c0.6-0.1,1.3-0.2,1.9-0.3c0.3-0.1,0.5-0.1,0.8-0.2c0.1,0,0.2-0.1,0.2-0.1c0-0.2,0.1-0.4,0-0.6
			c0-0.3-0.1-0.6-0.2-0.9c0-0.1,0-0.2,0-0.3c0-0.4,0-0.8-0.3-1.1c0-0.1,0-0.1,0-0.2c0-0.1,0-0.3-0.1-0.4c-0.1-0.3-0.2-0.6-0.2-1
			c-0.1-0.3-0.1-0.6-0.2-1c-0.1-0.5-0.3-1-0.5-1.4c-0.1-0.2-0.2-0.3-0.3-0.5c0.1-0.2,0.1-0.5-0.1-0.8c0,0,0-0.1-0.1-0.1
			c0-0.5-0.5-0.8-0.8-1.1c-0.1-0.1-0.2-0.1-0.2-0.2c-0.1-0.4-0.1-0.7-0.1-1.1c0-0.2,0.1-0.3,0.3-0.3c0.1,0,0.3,0,0.4,0
			c0.4,0.1,0.8,0.2,1.2,0.1c0.1,0,0.2,0,0.3,0c0.5,0.1,0.9,0.1,1.4,0.2c0,0,0,0,0,0c0.6-0.2,1.1,0.2,1.7,0.3c0.1,0,0.2,0.1,0.3,0.2
			c0.1,0,0.2,0.1,0.3,0.1c0.4,0,0.6,0.3,0.7,0.6c0.2,0.4,0.5,0.6,0.9,0.6c0.3,0,0.6-0.1,0.9-0.2c0.4-0.1,0.8-0.2,1.1-0.3
			c0.9-0.2,1.7-0.3,2.6-0.6c0.7-0.2,1.3-0.3,2-0.5c0.2-0.1,0.5-0.1,0.7-0.1c0,0,0,0,0,0c0.4-0.3,1-0.3,1.4-0.5c0,0,0.1,0,0.1-0.1
			c0.2-0.1,0.3-0.2,0.6-0.2c0,0,0.1,0,0.2,0c0.2,0,0.2-0.1,0.2-0.3c-0.1-0.2-0.1-0.4,0-0.6c0-0.1,0-0.1,0-0.2c0-0.1,0-0.3,0.1-0.4
			c0.1-0.4,0.5-0.6,0.9-0.6c0.4,0,0.7,0,1-0.2c0.1-0.1,0.2,0,0.3,0c0.4,0.3,0.9,0.5,1.4,0.6c0.1,0,0.2,0.1,0.2,0.1
			c0.3,0.4,0.8,0.5,1.3,0.6c0.2,0,0.4,0.1,0.4,0.3c0,0.1,0.1,0.2,0.2,0.2c0.2,0.1,0.4,0.2,0.7,0.4c0.7,0.4,0.9,1,1,1.7
			c0,0.1,0,0.2-0.1,0.3c-0.1,0.4-0.3,0.7-0.5,1c-0.1,0.2-0.2,0.3-0.3,0.4c0,0.1-0.1,0.1-0.1,0.2c0,0.3-0.1,0.5-0.1,0.8
			c0,0.1,0.1,0.2,0.2,0.3c0.2,0.2,0.2,0.4,0.1,0.6c-0.1,0.2-0.1,0.4-0.2,0.5c0,0.2,0,0.3,0.2,0.4c0.2,0.1,0.4,0.2,0.6,0.2
			c0.1,0,0.2,0.1,0.3,0.1c0.7,0,1.1,0.4,1.5,0.8C42.7,32.6,42.7,32.6,42.7,32.7z M33.3,33.8c0.2,0.1,0.4-0.1,0.6-0.2
			c0.5-0.2,0.8-0.5,0.8-1.1c0-0.3,0-0.6,0.1-0.8c0.2-0.6,0.2-1.2,0.1-1.8c0-0.1,0-0.3,0-0.5c0-0.4,0-0.8,0-1.1c0,0,0-0.1,0-0.1
			c-0.2-0.2-0.2-0.5-0.1-0.7c0-0.3,0-0.4-0.3-0.5c-0.3-0.1-0.6-0.1-0.9-0.1c-0.3,0-0.6,0-0.9,0.2c-0.1,0-0.1,0-0.2,0.1
			c-0.6,0.2-1.2,0.4-1.8,0.6c-0.2,0.1-0.4,0.2-0.6,0.2c-0.4,0.1-0.9,0.3-1.4,0.4c-0.2,0-0.3,0.1-0.4,0.3c0,0.1-0.1,0.2-0.2,0.2
			c-0.5,0.1-0.9,0.5-1.4,0.6c-0.1,0-0.1,0.1-0.1,0.1c-0.2,0.2-0.4,0.4-0.6,0.6c-0.3,0.2-0.5,0.3-0.8,0.5c-0.1,0.1-0.2,0.1-0.4,0.1
			c-0.1,0-0.2,0.1-0.3,0.1c-0.3,0.1-0.5,0.2-0.8,0.2c-0.2,0-0.5,0-0.8,0.1c-0.1,0-0.2,0-0.3,0c-0.4,0-0.6,0.2-0.5,0.6
			c0.1,0.2,0.1,0.5,0,0.7c-0.1,0.4-0.3,0.7-0.3,1.1c0,0,0,0.1-0.1,0.1c-0.4,0.3-0.3,0.8-0.3,1.2c0,0.3,0,0.5-0.1,0.8
			c-0.1,0.3,0.1,0.4,0.4,0.4c0.6,0,1.2-0.2,1.8-0.3c0.4-0.1,0.8-0.2,1.3-0.2c0.3,0,0.5-0.1,0.8,0c0.2,0.1,0.5,0,0.7,0
			c0.1,0,0.2-0.1,0.3-0.2c0.2-0.2,0.4-0.3,0.7-0.2c0.1,0,0.3,0,0.3,0c0.2-0.2,0.4-0.2,0.6-0.1c0.3,0,0.6,0,0.9-0.2
			c0.1-0.1,0.2-0.1,0.4-0.1c0.1,0,0.2,0,0.3,0c0.2-0.1,0.4-0.2,0.7-0.3c0.2,0,0.4,0,0.6-0.1c0.1,0,0.2,0,0.2,0
			c0.2-0.2,0.4-0.2,0.6-0.3c0.4-0.1,0.8-0.3,1.2-0.4C33.1,33.8,33.2,33.8,33.3,33.8z"/>
		<path id="XMLID_2040_" class="st0" d="M13.6,19.5c0.4,0.4,0.9,0.5,1.4,0.3c0.1-0.1,0.2-0.1,0.3,0c0.1,0.1,0.3,0.1,0.5,0
			c0.3-0.1,0.7-0.2,0.9-0.5c0-0.1,0.1-0.1,0.2-0.1c0.1-0.1,0.3-0.1,0.4-0.2c0.3-0.3,0.6-0.6,1-0.7c0.1,0,0.2-0.1,0.3-0.2
			c0.1-0.1,0.3-0.2,0.4-0.3c0,0,0.1,0,0.1-0.1c0.4-0.5,1-0.7,1.4-1.2c0.1-0.2,0.5-0.3,0.7-0.5c0.1,0,0.1,0,0.2-0.1
			c0.2-0.3,0.4-0.4,0.7-0.6c0.1,0,0.1-0.1,0.2-0.2c0.1-0.1,0.2-0.2,0.3-0.3c0.1-0.2,0.3-0.3,0.5-0.5c0.3-0.1,0.5-0.4,0.7-0.6
			c0.1-0.1,0.1-0.2,0.2-0.2c0.4-0.1,0.7-0.5,1-0.8c0.2-0.1,0.3-0.3,0.5-0.4c0.4-0.3,0.7-0.7,1.1-0.9c0.1,0,0.2-0.2,0.2-0.3
			c0.2-0.3,0.4-0.7,0.7-0.9c0.1-0.1,0.2-0.3,0.3-0.4c0.1-0.2,0.3-0.3,0.5-0.5c0.1-0.1,0.2-0.1,0.2-0.1c0.1-0.3,0.4-0.5,0.5-0.8
			c0-0.1,0.1-0.1,0.2-0.2c0.1-0.1,0.3-0.3,0.3-0.4c0.1-0.4,0.4-0.8,0.3-1.3c0-0.1,0-0.1,0.1-0.2c0-0.1,0.1-0.2,0.1-0.2
			c-0.1-0.3,0.1-0.6,0-0.8c0-0.2,0.1-0.3,0.3-0.3c0.2,0,0.5-0.1,0.7,0c0.5,0.1,0.9,0.3,1.3,0.5c0.2,0.1,0.4,0.2,0.6,0.2
			c0.1,0,0.3,0.1,0.4,0.2c0.1,0.2,0.3,0.2,0.5,0.3c0.2,0.1,0.4,0.1,0.6,0.2c0.2,0.1,0.5,0.1,0.4,0.5c0,0.1,0.1,0.2,0.1,0.2
			c0.3,0.1,0.4,0.5,0.6,0.7c0.1,0.1,0.1,0.2,0.1,0.3c0,0.1,0,0.2,0.1,0.3c0.3,0.3,0.1,0.5,0,0.7c-0.1,0.3-0.3,0.4-0.5,0.6
			c-0.5,0.3-1.1,0.3-1.6,0.4c-0.5,0.1-0.9,0.3-1.3,0.4c-0.2,0.1-0.3,0-0.5,0c-0.2-0.1-0.4-0.2-0.7-0.3c-0.1,0-0.1,0-0.2,0
			c-0.2,0-0.4,0-0.6,0c-0.2,0-0.4,0-0.6,0.2c0,0-0.1,0.1-0.2,0.1c-0.4,0.2-0.8,0.5-1.1,0.8c-0.2,0.2-0.4,0.4-0.6,0.5
			c-0.1,0.1-0.3,0.2-0.4,0.2c-0.4,0.2-0.8,0.3-1,0.7c-0.1,0.3-0.4,0.4-0.7,0.5c-0.1,0-0.2,0.1-0.3,0.1c-0.2,0.2-0.4,0.3-0.6,0.5
			c-0.3,0.3-0.7,0.6-1,0.8c0,0-0.1,0.1-0.2,0.1c-0.3,0.1-0.5,0.3-0.7,0.6c-0.4,0.5-1,0.9-1.6,1.3c-0.2,0.1-0.4,0.3-0.6,0.5
			c-0.2,0.2-0.5,0.4-0.7,0.6c-0.5,0.4-1.1,0.7-1.6,1.1c-0.3,0.2-0.5,0.4-0.7,0.7c-0.1,0.1-0.1,0.2,0,0.3c0.2,0.1,0.3,0.1,0.5,0.1
			c0.5-0.3,1-0.2,1.6-0.3c0.4-0.1,0.9-0.2,1.3-0.3c0.2,0,0.3-0.1,0.5-0.1c0.4,0.1,0.7-0.1,1-0.2c0.5-0.1,0.9-0.2,1.4-0.3
			c0.8-0.1,1.6-0.2,2.4-0.3c0.5-0.1,1-0.1,1.5-0.1c0.3,0,0.6,0,0.8-0.1c0.9-0.2,1.8-0.1,2.7-0.3c0.1,0,0.2,0,0.3-0.1
			c0.3-0.2,0.7-0.3,1-0.2c0.3,0.1,0.6-0.1,0.8-0.3c0.1,0,0.1-0.2,0-0.3c0-0.2,0-0.2,0.2-0.3c0.3-0.1,0.6-0.2,0.9-0.3
			c0.3-0.1,0.4,0,0.6,0.1c0.1,0.2,0.1,0.4,0.2,0.5c0,0.1,0.2,0.1,0.3,0.2c0.1,0,0.2,0,0.2-0.1c0,0,0-0.2,0-0.2
			c-0.2-0.2-0.3-0.4-0.3-0.7c0-0.1-0.1-0.2-0.1-0.3c-0.2-0.2-0.2-0.3-0.2-0.5c0-0.1,0-0.2-0.1-0.3c-0.1-0.2-0.1-0.3-0.1-0.5
			c0-0.2,0.1-0.3,0.3-0.3c0,0,0.1,0,0.1,0c0.4-0.1,0.7-0.1,1.1,0c0.3,0,0.7,0,1,0c0.7-0.1,1.4,0.1,2,0.2c0.1,0,0.2,0,0.3,0
			c0.2,0,0.3,0.1,0.3,0.2c0.1,0.3,0.4,0.4,0.7,0.5c0.1,0,0.1,0,0.1,0c0.4,0.3,0.9,0.5,1.3,0.8c0.1,0.1,0.1,0.3,0.1,0.4
			c0,0.3,0.1,0.6,0.2,0.9c0.2,0.5,0.5,1,0.6,1.6c0,0.2,0.1,0.3,0.2,0.5c0.2,0.3,0.2,0.6,0.3,0.9c0,0.1,0.1,0.3,0.1,0.4
			c0.1,0.2,0.2,0.4,0.2,0.7c0,0.2,0,0.4,0,0.6c0,0.3-0.1,0.3-0.4,0.3c-0.2-0.1-0.3-0.2-0.5-0.3c0,0-0.1,0.1-0.2,0.1
			c-0.1,0-0.1,0.1-0.2,0.1c-0.4,0-0.7,0.3-1.1,0.5c-0.3,0.1-0.6,0.1-0.9-0.1c-0.3-0.3-0.7-0.4-1.1-0.6c-0.2-0.1-0.4-0.3-0.6-0.5
			c-0.3-0.3-0.5-0.6-0.7-1c0-0.1-0.1-0.1-0.2-0.2c0-0.1-0.1-0.1-0.1-0.2c0.1-0.4-0.3-0.5-0.5-0.8c0-0.1-0.2-0.1-0.4-0.1
			c-0.1,0-0.2-0.1-0.3-0.2c-0.1-0.1-0.2-0.2-0.4-0.3c-0.1,0.3-0.3,0.4-0.5,0.5c-0.1,0.1-0.3,0-0.4,0.1c-0.4,0-0.8-0.1-1.1,0.1
			c-0.2,0.1-0.5,0.2-0.7,0c0,0-0.1-0.1-0.2,0c-0.2,0.2-0.5,0.1-0.7,0.3c-0.1,0.1-0.6,0.1-0.7-0.1c-0.1-0.2-0.3-0.3-0.5-0.2
			c-0.5,0.1-1,0.2-1.5,0.3c-0.2,0-0.5,0.1-0.7,0.1c-0.7,0.1-1.4,0.3-2.1,0.4c-0.2,0-0.5,0-0.7,0.1c-0.3,0.1-0.7,0.1-1,0.2
			c-0.2,0-0.4,0.1-0.6,0.1c-0.3,0-0.6,0.1-0.8,0.3C24.3,21,24.1,21,24,21c-0.3,0-0.6,0-0.8,0.2c0,0-0.1,0-0.1,0
			c-0.4-0.1-0.8,0.1-1.2,0.3c-0.2,0.1-0.5,0.1-0.7,0c-0.2-0.1-0.4,0-0.5,0.1c-0.3,0.2-0.6,0.5-0.9,0.7c-0.1,0.1-0.2,0.1-0.3,0.2
			c0,0-0.1,0-0.1,0c-0.4,0.3-0.9,0.3-1.3,0.4c-0.2,0-0.3,0.1-0.2,0.3c0.1,0.3-0.2,0.5-0.3,0.8c0,0-0.1,0.1-0.1,0.1c0,0-0.1,0-0.1,0
			c-0.1,0-0.2,0.1-0.2,0.2c0,0.4-0.6,0.4-0.6,0.8c0,0.4-0.1,0.8-0.6,0.9c-0.1,0-0.2,0.1-0.3,0.2c-0.2,0.3-0.5,0.4-0.9,0.4
			c-0.3,0-0.6,0-0.8,0c-0.1,0.3-0.2,0.5-0.5,0.5c-0.2,0.1-0.3,0.2-0.4,0.3c-0.3-0.1-0.5-0.2-0.5-0.5c-0.1,0-0.3,0-0.4,0
			c-0.2,0-0.3-0.1-0.4-0.2c-0.1-0.1-0.2-0.3-0.3-0.4c-0.2-0.2-0.4-0.3-0.5-0.6c-0.1-0.3-0.3-0.5-0.5-0.7c-0.1-0.2-0.2-0.4-0.2-0.6
			c-0.1-0.3-0.2-0.7-0.4-1c-0.1-0.2-0.2-0.3-0.2-0.5c-0.1-0.3-0.3-0.5-0.4-0.8C9,21.7,9,21.5,9.2,21.3c0,0,0.1-0.1,0.1-0.2
			c-0.1-0.3,0.2-0.5,0.3-0.7c0.1-0.1,0.2-0.2,0.3-0.3c0.1-0.1,0.3-0.2,0.5-0.2c0.2,0.1,0.3,0,0.5-0.2c0,0,0-0.1,0.1-0.1
			c0.1-0.1,0.2-0.3,0.3-0.4c0.1,0,0.3,0.1,0.4,0.2c0,0,0.1,0,0.1,0c0.3,0,0.7,0,1,0c0,0,0.1,0,0.1,0C13.2,19.6,13.4,19.5,13.6,19.5z
			"/>
	</g>
	<g id="XMLID_2064_">
		<path id="XMLID_2038_" class="st1" d="M113.7,30.9c-0.2-0.1-0.3-0.1-0.4-0.2c-0.3-0.1-0.4-0.3-0.3-0.4c0.1-0.1,0.2-0.2,0.5,0
			c0.2,0.1,0.4,0.1,0.5,0c0.2-0.2,0.6-0.3,0.7-0.6c0,0,0.1-0.1,0.1-0.1c0.2-0.1,0.2-0.3,0.2-0.5c0-0.3-0.2-0.4-0.5-0.5
			c-0.4-0.1-0.7-0.3-0.9-0.6c-0.2-0.2-0.4-0.4-0.6-0.6c-0.2-0.1-0.2-0.2-0.1-0.4c0.1-0.1,0.2-0.2,0.4-0.4c-0.2-0.2-0.3-0.2-0.5-0.1
			c-0.2,0.1-0.3-0.1-0.2-0.3c0.1-0.3,0.1-0.5,0-0.8c-0.1-0.2,0.1-0.5,0.1-0.8c0-0.1,0-0.2,0-0.3c0-0.1,0-0.2-0.1-0.3
			c-0.3-0.1-0.6-0.3-0.9-0.4c0,0.1-0.1,0.2-0.1,0.2c0,0.4,0,0.8,0.1,1.1c0,0.2,0.1,0.3,0.1,0.5c0,0.5,0,1.1,0,1.6
			c0,0.2,0,0.3-0.1,0.5c-0.1,0.4-1.4,0.8-1.8,0.8c-0.2,0-0.4,0-0.7,0c-0.1,0-0.3,0-0.4,0c-0.7-0.1-1.3-0.1-2-0.3
			c-0.4-0.1-0.7-0.3-1-0.5c0,0,0,0,0,0c0-0.3-0.3-0.5-0.4-0.6c-0.2-0.3-0.4-0.6-0.8-0.7c-0.3-0.1-0.5-0.3-0.8-0.5
			c-0.1-0.1-0.1-0.2-0.1-0.3c0.2-0.3,0.3-0.5,0.5-0.8c0.2-0.4,0.1-1.1-0.2-1.4c-0.1,0-0.1-0.1-0.2-0.1c-0.1,0-0.2-0.1-0.3-0.1
			c-0.6-0.3-1.1,0-1.6,0.1c0,0-0.1,0-0.1,0.1c-0.2,0.2-0.4,0.2-0.7,0.1c-0.2-0.1-0.5-0.1-0.7-0.1c-0.2,0-0.3,0.1-0.3,0.4
			c0,0.1,0,0.2-0.1,0.3c-0.3,0.3-0.3,0.6-0.1,1c0.1,0.1,0.1,0.3,0.1,0.4c-0.1,0.4-0.1,0.7-0.3,1c-0.2,0.5-0.5,1-0.7,1.5
			c-0.1,0.2-0.2,0.4-0.4,0.7c-0.1-0.2-0.2-0.4-0.2-0.5c0.1-0.5,0-0.9-0.1-1.4c0-0.2-0.1-0.3-0.3-0.3c-0.5-0.2-1-0.4-1.2-0.9
			c-0.1-0.1-0.1-0.2-0.2-0.2c-0.4-0.1-0.7-0.2-1.1-0.3c-0.1,0-0.2,0-0.2,0c-0.5,0.1-1,0.1-1.4,0.2c0,0-0.1,0-0.1,0
			c-0.6,0.3-1.2,0.5-1.8,0.7c-0.1,0-0.1,0.1-0.2,0.1c-0.5,0.3-0.9,0.5-1.4,0.8c-0.3,0.1-0.5,0.3-0.7,0.5c-0.1,0.4-0.5,0.6-0.8,1
			c-0.1,0.1-0.2,0.1-0.3,0c-0.1-0.2-0.3-0.4-0.4-0.5c-0.2-0.2-0.4-0.4-0.6-0.6c-0.5-0.4-1.2-0.5-1.8-0.4c-0.2,0-0.4,0-0.4,0.3
			c0,0.3-0.1,0.5,0.1,0.7c0.2,0.2,0.4,0.4,0.7,0.6c0.4,0.2,0.6,0.5,0.7,0.9c0,0.1,0.1,0.2,0.2,0.3c0.2,0.3,0.4,0.6,0.5,0.9
			c0.2,0.3,0.3,0.6,0.3,1c0,0.1,0.1,0.2,0.1,0.3c0,0.1,0.1,0.2,0,0.3c-0.1,0.2-0.1,0.4-0.1,0.7c0,0.3,0,0.6,0,0.9
			c0,0.1,0.1,0.3,0.1,0.4c0.1,0.1,0.3,0.2,0.5,0.2c0.1,0,0.3,0.1,0.3,0.2c0.1,0.2,0.3,0.3,0.5,0.3c0.3,0.1,0.5,0.2,0.7,0.4
			c0,0.1,0.1,0.1,0.2,0.1c0.5,0.2,1.1,0.3,1.6,0.2c0.2,0,0.3-0.1,0.4-0.3c0-0.1,0-0.2,0-0.3c0-0.2,0.3-0.6,0.5-0.6
			c0.3,0,0.6-0.2,0.9-0.3c0.5-0.2,0.9-0.2,1.4-0.1c0.1,0,0.2,0.1,0.3,0.2c0.3,0.2,0.3,0.5,0,0.8c-0.2,0.2-0.3,0.3-0.4,0.5
			c-0.1,0.1-0.2,0.3-0.2,0.4c-0.3,0.4-0.5,0.9-0.8,1.4c-0.2,0.3-0.3,0.6-0.4,0.9c0,0.1-0.1,0.2-0.2,0.3c-0.4,0.4-0.7,0.9-1,1.3
			c-0.3,0.4-0.3,0.8-0.3,1.3c0,0.1,0.1,0.2,0.1,0.2c0.1,0.1,0.4,0,0.5-0.2c0.2-0.3,0.4-0.5,0.5-0.8c0.1-0.1,0.2-0.2,0.3-0.2
			c0.1-0.1,0.2-0.1,0.2-0.2c0-0.2,0.1-0.4,0.3-0.5c0.1,0,0.1-0.1,0.1-0.2c0.1-0.1,0.1-0.3,0.2-0.3c0.3-0.3,0.5-0.7,0.7-1.1
			c0.1-0.2,0.2-0.3,0.3-0.4c0.1-0.1,0.2-0.2,0.2-0.2c0.1-0.5,0.4-0.9,0.6-1.3c0.3-0.3,0.4-0.8,0.8-1.1c0.1,0,0.1-0.2,0.1-0.3
			c0.1-0.2,0.1-0.4,0.3-0.5c0.3-0.2,0.4-0.5,0.6-0.8c0-0.1,0.1-0.2,0.2-0.3c0.1-0.2,0.2-0.4,0.4-0.6c0.1-0.2,0.2-0.3,0.3-0.5
			c0.2-0.3,0.7-0.4,0.8-0.8c0,0,0.1-0.1,0.1-0.1c0.2-0.1,0.3-0.2,0.3-0.4c0-0.1,0-0.2,0.1-0.3c0.1-0.2,0.3-0.3,0.3-0.5
			c0.2-0.5,0.7-0.8,0.8-1.3c0,0,0,0,0.1-0.1c0.1-0.2,0.4-0.6,0.4-0.7c0,0,0,0,0.1,0c0,0.1,0,0.3,0,0.4c0,0.1,0,0.2,0,0.2
			c0.2,0.5,0.2,1,0.4,1.5c0.1,0.3,0.3,0.7,0.5,1c0,0.1,0.2,0.1,0.3,0.2c0.1,0.1,0.2,0.1,0.2,0.2c0.1,0.4,0.4,0.5,0.7,0.5
			c0.3,0,0.4,0.1,0.5,0.3c0.1,0.2,0.2,0.3,0.3,0.3c0.4,0.1,0.7,0.2,1.1,0.2c0.4,0,0.8,0.2,1.2,0c0.3,0.3,0.5,0.3,0.7,0.2
			c0.3-0.2,0.5-0.1,0.7,0c0.1,0.1,0.3,0.1,0.4,0.2c0.3-0.1,0.6-0.2,0.8-0.1c0.4,0.1,1.7-0.3,2.1-0.4c0.4-0.1,0.8-0.1,1.2-0.1
			c0.2,0,0.3-0.1,0.4-0.3c0-0.2,0.1-0.3,0.3-0.4C113.5,31,113.6,31,113.7,30.9z"/>
		<path id="XMLID_2037_" class="st1" d="M117.6,22c-0.4,0.3-0.7,0.2-1,0.1c-0.4-0.1-0.7-0.3-1.1-0.3c-0.7,0-0.8,0.1-0.6,0.8
			c0,0.2,0.2,0.5,0.2,0.7c0.1,0.4,0.2,0.8,0.2,1.2c0,0.1,0.1,0.2,0.1,0.3c0.1,0.1,0.1,0.3,0.2,0.4c0.1,0.1,0.2,0.3,0.3,0.4
			c0.3,0.4,0.5,0.7,0.8,1.1c0.1,0.2,0.3,0.4,0.5,0.6c0.1,0.1,0.2,0.2,0.3,0.3c0.2,0.2,0.4,0.4,0.6,0.6c0,0,0.2,0,0.3,0
			c0.4-0.1,0.7-0.1,1,0.2c0.3,0.2,0.6,0.3,0.9,0.4c0.1,0,0.1,0.1,0.2,0.2c0.2,0.1,0.3,0.4,0.6,0.4c0.3,0.1,0.5,0.2,0.6,0.4
			c0.1,0.1,0.2,0.1,0.3,0.2c0.4,0.4,0.8,0.6,1.1,1.1c0,0.1,0.1,0.1,0.2,0.2c0.4,0.2,0.7,0.4,0.9,0.8c0,0.1,0.2,0.2,0.3,0.2
			c0.4,0.2,0.7,0.4,1,0.7c0.1,0.1,0.3,0.3,0.4,0.4c0.3,0.2,0.6,0.3,0.9,0.2c0.2-0.1,0.4-0.2,0.5-0.2c0.3,0,0.4-0.2,0.5-0.4
			c0.1-0.3,0.3-0.5,0.5-0.7c0.2-0.2,0.5-0.1,0.8,0c0-0.3,0.1-0.3,0.4-0.4c0.1,0,0.3-0.2,0.4-0.3c0.2-0.3,0.2-0.3,0.6-0.2
			c0.2,0,0.3,0.1,0.5,0c-0.1-0.2-0.1-0.4-0.2-0.6c-0.1-0.3-0.1-0.5-0.2-0.8c-0.1-0.3-0.3-0.5-0.5-0.8c0-0.1-0.2-0.1-0.2-0.1
			c-0.1,0-0.2,0-0.2,0c-0.1-0.1-0.1-0.2-0.2-0.3c-0.1-0.1-0.2-0.2-0.2-0.2c-0.3-0.2-0.6-0.5-0.9-0.7c-0.3-0.2-0.5-0.4-0.7-0.7
			c-0.1-0.2-0.2-0.2-0.4-0.1c-0.1,0-0.1,0.1-0.2,0.1c-0.1-0.1-0.2-0.1-0.2-0.2c-0.2-0.2-0.4-0.3-0.5-0.5c-0.2-0.3-0.4-0.6-0.8-0.7
			c-0.3-0.1-0.5-0.2-0.7-0.4c-0.3-0.2-0.6-0.5-1-0.4c-0.1,0-0.2-0.1-0.3-0.1c-0.3-0.2-0.5-0.5-0.9-0.5c0,0-0.1-0.1-0.2-0.1
			c-0.4-0.3-0.8-0.5-1.3-0.7c-0.4-0.2-0.8-0.3-1.2-0.4c-0.3-0.1-0.6-0.2-0.9-0.2C118.4,22.7,117.9,22.6,117.6,22z"/>
		<path id="XMLID_2036_" class="st1" d="M84.9,15c0.1,0.2,0.3,0.4,0.3,0.6c0.1,0.4,0.3,0.6,0.5,0.9c0.5,0.6,1,1.1,1.5,1.6
			c0.4,0.4,0.8,0.4,1-0.2c0-0.1,0.1-0.2,0.2-0.3c0.1-0.1,0.1-0.1,0.1-0.2c0.1-0.3,0.3-0.5,0.5-0.7c0.2-0.2,0.3-0.5,0.6-0.6
			c0,0,0,0,0,0c0.1-0.2,0.3-0.2,0.4-0.2c0.2,0,0.4,0,0.5-0.2c0-0.1,0.2-0.1,0.2-0.1c0.3-0.3,0.8-0.3,1-0.7c0.4,0.1,0.6-0.1,0.9-0.2
			c0.4-0.1,0.4-0.1,0.4-0.6c0-0.1,0-0.2,0-0.3c0.2,0,0.2,0.1,0.3,0.2c0.1,0.1,0.2,0.2,0.3,0.3c0,0,0.1,0,0.1-0.1
			c-0.1-0.1-0.1-0.2-0.2-0.3c0.2-0.1,0.3-0.2,0.5-0.3c0.3,0.4,0.3,0.4,0.7,0.3c0.2-0.1,0.5-0.1,0.7-0.2c0.3-0.1,0.5-0.2,0.8-0.2
			c0.1,0,0.1-0.1,0.1-0.1c0.2-0.4,0.3-0.7,0.4-1.1c0.1-0.2,0-0.3-0.2-0.3c-0.2,0-0.4,0-0.5,0c-0.1,0-0.3-0.1-0.3-0.2
			c-0.2-0.4-0.4-0.8-0.5-1.2c0-0.3-0.1-0.5-0.2-0.8c0-0.1-0.1-0.2-0.2-0.3c-0.2-0.1-0.3-0.4-0.4-0.6c-0.1-0.1-0.1-0.2-0.2-0.3
			c-0.2-0.1-0.3-0.2-0.4-0.4C94.1,8,94,7.8,93.9,7.6c-0.1-0.3-0.3-0.7-0.7-0.7c-0.5-0.1-1,0-1.4,0C91.5,6.9,91.2,7,91,7
			c-0.6,0.1-1.1,0.1-1.7,0.4C89,7.5,89,7.7,89.2,7.9C89.2,8,89.3,8,89.4,8.1c0.2,0.2,0.2,0.3,0,0.5c-0.1,0.1-0.2,0.2-0.3,0.3
			c0.3,0.1,0.5,0.2,0.7,0.2c0.5,0,0.7,0.3,0.9,0.6c0.1,0.1,0.1,0.1,0.2,0.2c0.3,0.2,0.7,0.5,0.9,0.8c0.2,0.2,0.4,0.4,0.7,0.3
			c0.3-0.1,0.7,0,1,0c0.5,0.1,0.9,0.2,1.3,0.6c0.3,0.3,0.2,0.5-0.2,0.6c-0.4,0.1-0.9,0.2-1.3,0.4c-0.2,0.1-0.5,0.2-0.7,0.2
			c-0.4,0-0.9,0.2-1.2,0.4c-0.2,0.1-0.5,0.2-0.7,0.2c-0.2,0-0.3,0-0.5,0c-0.1,0-0.3,0-0.4,0.1c-0.2,0.2-0.5,0.3-0.7,0.3
			c-0.2,0.1-0.3,0.2-0.5,0c0,0-0.2,0-0.2,0c-0.4,0.3-0.9,0.3-1.3,0.5c-0.4,0.2-0.8,0.2-1.2,0.2c-0.1,0-0.2,0-0.3,0.1
			C85.4,14.7,85.2,14.9,84.9,15z"/>
		<path id="XMLID_2011_" class="st1" d="M87.8,20.4c0,0.6,0.2,1,0.6,1.3c0.4,0.3,0.5,0.3,0.8-0.1c0.2-0.2,0.4-0.5,0.7-0.6
			c0.1,0,0.1-0.1,0.1-0.1c0.1-0.2,0.3-0.3,0.5-0.4c0.3-0.2,0.7-0.4,1-0.6c0.7-0.4,1.3-0.8,2-1.2c0.5-0.3,1-0.5,1.5-0.8
			c0.2-0.1,0.3-0.2,0.4-0.4c0.1-0.1,0.1-0.1,0.2-0.2c0.4-0.2,0.5-0.3,0.4-0.7c0-0.2,0-0.3,0.1-0.5c0,0,0.1-0.1,0.1-0.1
			c0.1-0.1,0.1-0.3-0.1-0.3c-0.1,0-0.3,0-0.4,0c-0.3,0.1-0.6,0.2-0.9,0.2c-0.1,0-0.2,0.1-0.3,0.1c-0.2,0.2-0.4,0.2-0.6,0.3
			c-0.9,0.4-1.9,0.7-2.7,1.3c0,0-0.1,0.1-0.1,0.1c-0.3,0-0.5,0.2-0.8,0.4c-0.5,0.4-1.1,0.7-1.6,1.1c-0.3,0.2-0.7,0.5-1,0.7
			C87.9,20.3,87.8,20.4,87.8,20.4z"/>
		<path id="XMLID_2009_" class="st1" d="M95.7,20.7C95.7,20.7,95.7,20.6,95.7,20.7c-0.2-0.1-0.4-0.1-0.6,0c-0.5,0.1-1.1,0.2-1.6,0.4
			c-0.4,0.2-0.8,0.4-1.1,0.6c-0.3,0.2-0.6,0.5-0.9,0.7c-0.1,0.1-0.3,0.2-0.4,0.3c-0.3,0.2-0.7,0.4-0.9,0.7c-0.2,0.3-0.5,0.5-0.8,0.7
			c-0.2,0.2-0.4,1.1-0.2,1.3c0,0,0,0,0,0c0.2,0.2,0.4,0.3,0.7,0.5c0.2,0.1,0.4,0,0.5-0.2c0.1-0.1,0.1-0.3,0.2-0.4
			c0.3-0.2,0.5-0.5,0.8-0.7c0.3-0.2,0.6-0.5,0.9-0.7c0.1-0.1,0.2-0.1,0.2-0.2c0.4-0.6,1.1-0.9,1.7-1.3c0.1,0,0.1,0,0.2,0
			c0.2,0,0.3,0,0.5-0.1c0.4,0,0.4-0.1,0.4-0.4c0-0.1,0-0.1,0-0.1C95.7,21.4,95.5,21,95.7,20.7z"/>
		<path id="XMLID_1950_" class="st1" d="M106.1,25.8c0.3,0,0.4,0.1,0.5,0.4c0,0.1,0.1,0.2,0.2,0.2c0.3,0.1,0.6,0.2,0.9,0.3
			c0.2,0.1,0.3,0,0.4-0.3c0-0.2,0.1-0.3,0.1-0.5c0-0.5,0.2-0.8,0.6-1.1c0.1-0.1,0.2-0.2,0.1-0.4c0-0.1,0-0.2-0.1-0.3
			c0-0.2-0.1-0.3-0.2-0.4c-0.6-0.5-1.7-0.7-2.4-0.5c-0.4,0.1-0.6,0.5-0.8,0.8c0,0,0,0.1,0,0.2c0.1,0.3,0.2,0.5,0.3,0.8
			c0,0.1,0.1,0.2,0.2,0.2C106,25.4,106,25.6,106.1,25.8z"/>
		<path id="XMLID_1949_" class="st1" d="M118.2,20.3C118.2,20.3,118.2,20.3,118.2,20.3C118.2,20.2,118.2,20.2,118.2,20.3
			C118.2,20.3,118.2,20.3,118.2,20.3C118.2,20.3,118.2,20.3,118.2,20.3z"/>
		<path id="XMLID_2073_" class="st0" d="M113.7,30.9c-0.1,0.1-0.1,0.2-0.2,0.2c-0.2,0.1-0.3,0.2-0.3,0.4c0,0.2-0.1,0.3-0.4,0.3
			c-0.4,0-0.8,0.1-1.2,0.1c-0.3,0-1.7,0.4-2.1,0.4c-0.2,0-0.5,0.1-0.8,0.1c-0.1,0-0.2-0.1-0.4-0.2c-0.2-0.2-0.5-0.2-0.7,0
			c-0.2,0.1-0.4,0.1-0.7-0.2c-0.4,0.2-0.8,0-1.2,0c-0.4,0-0.7-0.1-1.1-0.2c-0.2,0-0.3-0.1-0.3-0.3c-0.1-0.3-0.2-0.3-0.5-0.3
			c-0.3,0-0.6-0.1-0.7-0.5c0-0.1-0.1-0.1-0.2-0.2c-0.1-0.1-0.2-0.1-0.3-0.2c-0.2-0.3-0.3-0.6-0.5-1c-0.2-0.5-0.1-1-0.4-1.5
			c0-0.1,0-0.2,0-0.2c0-0.1,0-0.3,0-0.4c-0.1,0-0.1,0-0.1,0c0,0.2-0.3,0.6-0.4,0.7c0,0,0,0-0.1,0.1c-0.1,0.6-0.6,0.8-0.8,1.3
			c-0.1,0.2-0.2,0.3-0.3,0.5c-0.1,0.1-0.1,0.2-0.1,0.3c0,0.2-0.1,0.4-0.3,0.4c0,0-0.1,0-0.1,0.1c-0.1,0.4-0.6,0.5-0.8,0.8
			c-0.1,0.2-0.2,0.3-0.3,0.5c-0.1,0.2-0.2,0.4-0.4,0.6c-0.1,0.1-0.1,0.2-0.2,0.3c-0.2,0.3-0.3,0.6-0.6,0.8c-0.1,0.1-0.2,0.3-0.3,0.5
			c0,0.1,0,0.3-0.1,0.3c-0.4,0.3-0.5,0.7-0.8,1.1c-0.3,0.4-0.6,0.8-0.6,1.3c0,0.1-0.1,0.2-0.2,0.2c-0.1,0.1-0.3,0.3-0.3,0.4
			c-0.2,0.4-0.4,0.8-0.7,1.1c-0.1,0.1-0.2,0.2-0.2,0.3c0,0.1,0,0.2-0.1,0.2c-0.2,0.1-0.3,0.3-0.3,0.5c0,0.1-0.1,0.1-0.2,0.2
			c-0.1,0.1-0.2,0.1-0.3,0.2c-0.2,0.3-0.4,0.5-0.5,0.8C92.5,40.9,92.2,41,92,41c-0.1,0-0.1-0.1-0.1-0.2c0-0.4,0-0.9,0.3-1.3
			c0.3-0.4,0.6-0.9,1-1.3c0.1-0.1,0.2-0.2,0.2-0.3c0.1-0.3,0.3-0.6,0.4-0.9c0.2-0.5,0.5-0.9,0.8-1.4c0.1-0.1,0.1-0.3,0.2-0.4
			c0.1-0.2,0.3-0.4,0.4-0.5c0.3-0.3,0.3-0.5,0-0.8c-0.1-0.1-0.2-0.1-0.3-0.2c-0.5-0.1-0.9-0.1-1.4,0.1c-0.3,0.1-0.5,0.3-0.9,0.3
			c-0.1,0-0.5,0.4-0.5,0.6c0,0.1,0,0.2,0,0.3c0,0.2-0.1,0.3-0.4,0.3c-0.6,0.1-1.1-0.1-1.6-0.2C90.1,35.1,90,35,90,35
			c-0.2-0.2-0.4-0.3-0.7-0.4c-0.2,0-0.4-0.1-0.5-0.3c-0.1-0.2-0.2-0.2-0.3-0.2c-0.2-0.1-0.3-0.1-0.5-0.2c-0.1-0.1-0.1-0.2-0.1-0.4
			c0-0.3,0-0.6,0-0.9c0-0.2,0-0.5,0.1-0.7c0-0.1,0-0.2,0-0.3c0-0.1-0.1-0.2-0.1-0.3c0.1-0.4-0.1-0.7-0.3-1c-0.2-0.3-0.4-0.6-0.5-0.9
			c-0.1-0.1-0.1-0.2-0.2-0.3c-0.1-0.4-0.3-0.7-0.7-0.9c-0.3-0.2-0.5-0.4-0.7-0.6c-0.2-0.2-0.1-0.5-0.1-0.7c0-0.2,0.2-0.2,0.4-0.3
			c0.6-0.1,1.3,0,1.8,0.4c0.2,0.2,0.4,0.4,0.6,0.6c0.2,0.2,0.3,0.4,0.4,0.5c0.1,0.1,0.2,0.1,0.3,0c0.2-0.4,0.7-0.5,0.8-1
			c0.2-0.2,0.5-0.3,0.7-0.5c0.5-0.3,0.9-0.5,1.4-0.8c0.1,0,0.1-0.1,0.2-0.1c0.6-0.2,1.2-0.4,1.8-0.7c0,0,0.1,0,0.1,0
			c0.5-0.1,1-0.1,1.4-0.2c0.1,0,0.2,0,0.2,0c0.4,0.1,0.7,0.2,1.1,0.3c0.1,0,0.2,0.1,0.2,0.2c0.3,0.5,0.8,0.7,1.2,0.9
			c0.2,0.1,0.3,0.1,0.3,0.3c0.1,0.5,0.2,0.9,0.1,1.4c0,0.1,0.1,0.3,0.2,0.5c0.1-0.3,0.3-0.4,0.4-0.7c0.2-0.5,0.5-1,0.7-1.5
			c0.1-0.3,0.2-0.7,0.3-1c0-0.1,0-0.3-0.1-0.4c-0.2-0.4-0.2-0.7,0.1-1c0.1-0.1,0.1-0.2,0.1-0.3c0-0.2,0.1-0.3,0.3-0.4
			c0.2,0,0.5,0,0.7,0.1c0.3,0.1,0.5,0.1,0.7-0.1c0,0,0.1-0.1,0.1-0.1c0.5-0.1,1-0.4,1.6-0.1c0.1,0,0.2,0.1,0.3,0.1
			c0.1,0,0.1,0.1,0.2,0.1c0.3,0.3,0.4,1,0.2,1.4c-0.2,0.3-0.3,0.5-0.5,0.8c-0.1,0.1-0.1,0.2,0.1,0.3c0.3,0.2,0.5,0.4,0.8,0.5
			c0.3,0.2,0.5,0.5,0.8,0.7c0.2,0.2,0.4,0.3,0.4,0.6c0,0,0,0,0,0c0.3,0.2,0.6,0.4,1,0.5c0.6,0.1,1.3,0.2,2,0.3c0.1,0,0.3,0,0.4,0
			c0.2,0,0.4,0,0.7,0c0.4,0,1.6-0.4,1.8-0.8c0.1-0.2,0.1-0.3,0.1-0.5c0-0.5,0-1.1,0-1.6c0-0.2,0-0.3-0.1-0.5c0-0.4-0.1-0.8-0.1-1.1
			c0-0.1,0.1-0.1,0.1-0.2c0.3,0.1,0.6,0.2,0.9,0.4c0.1,0,0.1,0.2,0.1,0.3c0,0.1,0,0.2,0,0.3c0,0.3-0.2,0.5-0.1,0.8
			c0.1,0.3,0,0.5,0,0.8c-0.1,0.2,0,0.3,0.2,0.3c0.2,0,0.3,0,0.5,0.1c-0.1,0.1-0.2,0.2-0.4,0.4c-0.1,0.2-0.1,0.2,0.1,0.4
			c0.2,0.2,0.5,0.3,0.6,0.6c0.2,0.3,0.5,0.6,0.9,0.6c0.3,0,0.4,0.2,0.5,0.5c0,0.2,0,0.4-0.2,0.5c0,0-0.1,0.1-0.1,0.1
			c-0.2,0.3-0.5,0.4-0.7,0.6c-0.1,0.1-0.3,0.1-0.5,0c-0.3-0.1-0.4-0.1-0.5,0c-0.1,0.1,0,0.3,0.3,0.4
			C113.4,30.7,113.5,30.8,113.7,30.9z M108.4,31.4c-0.1,0-0.1-0.1-0.1-0.1c0,0-0.1,0-0.1,0.1c0,0,0,0.1,0.1,0.1
			C108.3,31.4,108.3,31.4,108.4,31.4z"/>
		<path id="XMLID_1942_" class="st0" d="M111.8,12.1c-0.2,0-0.4,0-0.6,0c-0.3,0.1-1.1,0.2-1.4,0.3c-0.2,0.1-0.3,0.3-0.5,0.4
			c-0.2,0.1-0.3,0.2-0.5,0.2c-0.2,0.1-0.3,0.2-0.3,0.4c0,0.3,0,0.7,0,1c0,0,0,0.1,0,0.1c-0.3,0.3-0.1,0.6-0.1,0.9
			c0,0.2,0,0.4,0.1,0.6c0,0.4,0.1,0.7,0.1,1.1c0,0.2,0.2,0.3,0.3,0.3c0.3,0,2.3-0.1,2.6-0.1c0.2,0,0.3-0.1,0.5-0.1
			c0.4,0.1,0.8,0.2,1.1,0.3c0.1,0,0.2,0.2,0.3,0.3c-0.3,0.3-0.5,0.7-1,0.7c-0.1,0-0.3,0-0.4-0.1c0,0-0.1-0.1-0.1-0.1
			c-0.1,0-0.3,0-0.3,0.1c0,0.1,0.1,0.2,0.1,0.2c0.1,0.1,0.2,0,0.3,0.1c0.1,0.2,0.2,0.3,0.3,0.5c0.1,0.1,0.1,0.3,0,0.4
			c-0.2,0.3-0.3,0.6-0.3,0.9c0,0.1-0.1,0.2-0.2,0.2c-0.5,0.2-2.8,0.5-3.3,0.4c-0.1,0-0.3,0-0.4,0.1c-0.4,0.2-0.9,0.3-1.3,0.2
			c-0.3-0.1-0.6-0.1-0.9,0.1c-0.3,0.1-0.6,0.2-0.9,0.2c-0.2,0-0.3,0.1-0.4,0.3c-0.1,0.2-0.3,0.3-0.5,0.3c-0.1,0-0.2,0-0.4,0
			c-0.1,0-0.2-0.1-0.2-0.1c0,0-0.1-0.1-0.1-0.1c-0.6-0.4-0.7-1-0.7-1.5c0-0.3,0.1-0.6,0.1-0.9c0-0.2,0-0.5-0.1-0.7
			c0-0.2,0-0.4,0.2-0.4c0.1,0,0.3,0,0.4,0c0.4,0.2,1,0.2,1.4-0.1c0.1,0,0.1-0.1,0.2-0.1c0.4,0,0.7-0.1,1.1-0.3
			c0.1-0.1,0.3-0.1,0.4-0.2c0.2-0.1,0.3-0.3,0.3-0.5c0-0.8,0-1.7,0-2.5c0-0.3-0.1-0.5-0.1-0.8c0-0.2-0.1-0.2-0.3-0.2
			c-0.1,0-0.2,0.1-0.4,0.1c-0.2,0.1-0.3,0.2-0.5,0.1c-0.1,0-0.2,0.1-0.3,0.2c-0.2,0.3-1,0.6-1.3,0.8c-0.2,0.1-0.4,0.3-0.4,0.6
			c0,0.3-0.2,0.3-0.4,0.3c-0.2,0-0.4,0-0.6,0c-0.2,0-0.3-0.1-0.4-0.3c-0.3-0.4-0.6-0.8-0.9-1.1c-0.2-0.3-0.4-0.6-0.7-0.9
			c-0.3-0.4-0.5-0.9-0.7-1.4c-0.2-0.4,0.1-0.6,0.5-0.5c0.2,0,0.5,0.1,0.7,0.1c0.2,0,0.4,0,0.6,0c0.2,0,0.4,0,0.6-0.1
			c0.1-0.1,0.2-0.1,0.3-0.1c0.2,0,0.3,0,0.5,0.1c0.3,0.1,0.5,0,0.8-0.2c0.1-0.1,0.3-0.1,0.5-0.1c0.2,0,1,0,1.2,0
			c0.2-0.1,0.4-0.2,0.6-0.3c0.2-0.1,0.3-0.2,0.6-0.2c0.3-0.1,0.3-0.1,0.4-0.4c0,0,0,0,0,0c0-0.7,0-1.3,0-2c0-0.5,0-0.5,0.1-1
			c-0.4-0.2-0.3-0.6-0.3-1c0-0.4,0-0.8-0.3-1.2c-0.1-0.1-0.1-0.4-0.1-0.5c0-0.3,0.1-0.7,0.1-1.1c0,0,0.1-0.1,0.2,0
			c0.5,0.1,0.9,0.1,1.4,0.3c0.3,0.2,0.6,0.4,0.9,0.6c0.2,0.2,0.4,0.2,0.6,0.4c0.1,0.1,0.2,0.3,0.1,0.4c-0.1,0.3-0.2,0.5-0.3,0.8
			c-0.1,0.2-0.2,0.4-0.4,0.6c-0.1,0.1-0.2,0.4-0.1,0.5c0.1,0.3,0,0.5-0.1,0.8c-0.1,0.2-0.2,0.4-0.1,0.7c0.1,0.4,0.1,0.7-0.2,1
			c-0.1,0.1-0.1,0.2,0,0.3c0.1,0.1,0.2,0.2,0.3,0.2c0.2,0,0.4,0,0.6-0.1c1-0.3,2.5-0.4,3.6-0.5c0.9-0.1,1.8,0,2.7,0.3
			c0.3,0.1,0.5,0.3,0.5,0.5c0,0.3-0.3,0.5-0.6,0.5c-0.1,0-0.2,0-0.3,0c-0.2,0-0.3,0.1-0.4,0.3c-0.2,0.5-0.6,0.8-1.1,1
			c-0.3,0.1-0.5,0.3-0.7,0.5c-0.2,0.2-0.3,0.4-0.5,0.5c0,0.1-0.1,0.1-0.2,0.1c-0.2,0-0.5,0-0.7-0.1c-0.3-0.1-0.3-0.2-0.1-0.5
			c0.2-0.2,0.4-0.5,0.6-0.7C111.8,12.2,111.8,12.1,111.8,12.1z"/>
		<path id="XMLID_1941_" class="st0" d="M117.6,22c0.3,0.6,0.8,0.7,1.4,0.7c0.3,0,0.6,0.1,0.9,0.2c0.4,0.1,0.8,0.3,1.2,0.4
			c0.4,0.2,0.9,0.4,1.3,0.7c0,0,0.1,0.1,0.2,0.1c0.4,0,0.6,0.3,0.9,0.5c0.1,0.1,0.2,0.2,0.3,0.1c0.4,0,0.7,0.2,1,0.4
			c0.2,0.2,0.4,0.3,0.7,0.4c0.4,0.1,0.6,0.3,0.8,0.7c0.1,0.2,0.3,0.3,0.5,0.5c0.1,0.1,0.1,0.1,0.2,0.2c0.1,0,0.1-0.1,0.2-0.1
			c0.2-0.1,0.3,0,0.4,0.1c0.2,0.3,0.4,0.5,0.7,0.7c0.3,0.2,0.6,0.5,0.9,0.7c0.1,0.1,0.2,0.1,0.2,0.2c0.1,0.1,0.1,0.2,0.2,0.3
			c0.1,0,0.1,0,0.2,0c0.1,0,0.2,0,0.2,0.1c0.2,0.2,0.4,0.5,0.5,0.8c0.1,0.2,0.2,0.5,0.2,0.8c0.1,0.2,0.1,0.4,0.2,0.6
			c-0.1,0.1-0.3,0-0.5,0c-0.4-0.1-0.4-0.1-0.6,0.2c-0.1,0.1-0.2,0.3-0.4,0.3c-0.2,0-0.4,0.1-0.4,0.4c-0.3-0.1-0.6-0.2-0.8,0
			c-0.2,0.2-0.4,0.4-0.5,0.7c-0.1,0.3-0.2,0.4-0.5,0.4c-0.2,0-0.4,0.1-0.5,0.2c-0.3,0.1-0.7,0.1-0.9-0.2c-0.1-0.1-0.3-0.3-0.4-0.4
			c-0.3-0.3-0.6-0.6-1-0.7c-0.1,0-0.2-0.1-0.3-0.2c-0.2-0.4-0.5-0.6-0.9-0.8c-0.1-0.1-0.2-0.1-0.2-0.2c-0.3-0.5-0.7-0.8-1.1-1.1
			c-0.1-0.1-0.2-0.1-0.3-0.2c-0.2-0.2-0.4-0.3-0.6-0.4c-0.2,0-0.4-0.3-0.6-0.4c-0.1-0.1-0.1-0.1-0.2-0.2c-0.3-0.2-0.6-0.3-0.9-0.4
			c-0.3-0.2-0.6-0.3-1-0.2c-0.1,0-0.2,0-0.3,0c-0.2-0.2-0.4-0.4-0.6-0.6c-0.1-0.1-0.2-0.2-0.3-0.3c-0.2-0.1-0.4-0.3-0.5-0.6
			c-0.2-0.4-0.5-0.7-0.8-1.1c-0.1-0.1-0.2-0.3-0.3-0.4c-0.1-0.1-0.1-0.3-0.2-0.4c0-0.1-0.1-0.2-0.1-0.3c-0.1-0.4-0.1-0.8-0.2-1.2
			c-0.1-0.2-0.2-0.5-0.2-0.7c-0.1-0.7,0-0.8,0.6-0.8c0.4,0,0.8,0.2,1.1,0.3C116.9,22.2,117.2,22.4,117.6,22z"/>
		<path id="XMLID_1937_" class="st0" d="M84.9,15c0.3-0.1,0.5-0.3,0.8-0.4c0.1,0,0.2-0.1,0.3-0.1c0.4,0,0.8,0,1.2-0.2
			c0.4-0.2,0.9-0.2,1.3-0.5c0,0,0.2,0,0.2,0c0.2,0.1,0.3,0.1,0.5,0c0.2-0.1,0.5-0.2,0.7-0.3c0.1-0.1,0.3-0.1,0.4-0.1
			c0.2,0,0.3,0,0.5,0c0.3,0,0.5,0,0.7-0.2c0.4-0.2,0.8-0.3,1.2-0.4c0.2,0,0.5-0.1,0.7-0.2c0.4-0.1,0.9-0.2,1.3-0.4
			c0.4-0.1,0.4-0.3,0.2-0.6c-0.3-0.4-0.8-0.5-1.3-0.6c-0.3-0.1-0.7-0.1-1,0c-0.3,0.1-0.5-0.1-0.7-0.3c-0.2-0.3-0.6-0.6-0.9-0.8
			c-0.1-0.1-0.2-0.1-0.2-0.2c-0.2-0.3-0.5-0.6-0.9-0.6c-0.2,0-0.4-0.1-0.7-0.2c0.1-0.1,0.2-0.2,0.3-0.3c0.2-0.2,0.2-0.3,0-0.5
			C89.3,8,89.2,8,89.2,7.9C89,7.7,89,7.5,89.3,7.4C89.8,7.1,90.4,7.1,91,7c0.3-0.1,0.5-0.1,0.8-0.1c0.5,0,1-0.1,1.4,0
			c0.4,0,0.6,0.4,0.7,0.7C94,7.8,94.1,8,94.1,8.2c0.1,0.2,0.2,0.3,0.4,0.4c0.1,0,0.2,0.2,0.2,0.3c0.1,0.2,0.2,0.5,0.4,0.6
			c0.1,0,0.1,0.2,0.2,0.3c0.1,0.3,0.1,0.5,0.2,0.8c0.1,0.5,0.3,0.9,0.5,1.2c0.1,0.1,0.2,0.1,0.3,0.2c0.2,0,0.4,0,0.5,0
			c0.2,0,0.3,0.1,0.2,0.3c-0.1,0.4-0.3,0.7-0.4,1.1c0,0.1-0.1,0.1-0.1,0.1c-0.3,0.1-0.5,0.2-0.8,0.2c-0.2,0.1-0.5,0.1-0.7,0.2
			c-0.4,0.2-0.4,0.2-0.7-0.3c-0.2,0.1-0.3,0.2-0.5,0.3c0.1,0.1,0.1,0.2,0.2,0.3c0,0-0.1,0.1-0.1,0.1c-0.1-0.1-0.2-0.2-0.3-0.3
			c-0.1-0.1-0.1-0.3-0.3-0.2c0,0.1,0,0.2,0,0.3c0,0.4,0,0.4-0.4,0.6c-0.3,0.1-0.6,0.3-0.9,0.2c-0.2,0.4-0.7,0.5-1,0.7
			c-0.1,0.1-0.2,0.1-0.2,0.1c-0.1,0.2-0.3,0.2-0.5,0.2c-0.2,0-0.3,0-0.4,0.2c0,0,0,0,0,0c-0.3,0.1-0.4,0.4-0.6,0.6
			c-0.2,0.2-0.4,0.4-0.5,0.7c0,0.1-0.1,0.1-0.1,0.2c-0.1,0.1-0.1,0.2-0.2,0.3c-0.3,0.6-0.6,0.6-1,0.2c-0.5-0.5-1.1-1-1.5-1.6
			c-0.2-0.3-0.5-0.5-0.5-0.9C85.1,15.4,85,15.2,84.9,15z"/>
		<path id="XMLID_1907_" class="st0" d="M87.8,20.4c0,0,0.1-0.1,0.1-0.2c0.3-0.2,0.7-0.5,1-0.7c0.5-0.4,1.1-0.7,1.6-1.1
			c0.2-0.2,0.4-0.4,0.8-0.4c0,0,0.1,0,0.1-0.1c0.8-0.7,1.7-1,2.7-1.3c0.2-0.1,0.4-0.2,0.6-0.3c0.1-0.1,0.2-0.2,0.3-0.1
			c0.3,0,0.6-0.1,0.9-0.2c0.1,0,0.3,0,0.4,0c0.2,0,0.2,0.2,0.1,0.3c0,0-0.1,0.1-0.1,0.1c-0.1,0.1-0.2,0.3-0.1,0.5
			c0.1,0.4,0,0.5-0.4,0.7c-0.1,0-0.2,0.1-0.2,0.2c-0.1,0.1-0.2,0.3-0.4,0.4c-0.5,0.3-1,0.5-1.5,0.8c-0.7,0.4-1.3,0.8-2,1.2
			c-0.3,0.2-0.7,0.4-1,0.6c-0.2,0.1-0.4,0.2-0.5,0.4c0,0.1-0.1,0.1-0.1,0.1c-0.3,0.1-0.5,0.3-0.7,0.6C89,22,88.8,22,88.4,21.7
			C88,21.4,87.8,21,87.8,20.4z"/>
		<path id="XMLID_1906_" class="st0" d="M95.7,20.7c-0.2,0.3-0.1,0.7-0.4,1c0,0,0,0.1,0,0.1c0,0.4-0.1,0.4-0.4,0.4
			c-0.2,0-0.3,0-0.5,0.1c-0.1,0-0.1,0-0.2,0c-0.6,0.4-1.3,0.7-1.7,1.3c-0.1,0.1-0.2,0.1-0.2,0.2c-0.3,0.2-0.6,0.5-0.9,0.7
			c-0.3,0.2-0.5,0.5-0.8,0.7c-0.1,0.1-0.2,0.2-0.2,0.4c-0.1,0.2-0.3,0.4-0.5,0.2c-0.2-0.1-0.4-0.3-0.7-0.5c0,0,0,0,0,0
			c-0.1-0.2,0-1.1,0.2-1.3c0.3-0.2,0.6-0.4,0.8-0.7c0.2-0.3,0.6-0.5,0.9-0.7c0.2-0.1,0.3-0.2,0.4-0.3c0.3-0.2,0.6-0.5,0.9-0.7
			c0.4-0.2,0.7-0.4,1.1-0.6c0.5-0.2,1-0.4,1.6-0.4C95.3,20.6,95.5,20.6,95.7,20.7C95.7,20.6,95.7,20.7,95.7,20.7z"/>
		<path id="XMLID_1905_" class="st0" d="M106.1,25.8c-0.1-0.2-0.1-0.4-0.3-0.5c-0.1,0-0.1-0.1-0.2-0.2c-0.1-0.3-0.2-0.5-0.3-0.8
			c0-0.1,0-0.1,0-0.2c0.2-0.3,0.4-0.7,0.8-0.8c0.7-0.2,1.8,0,2.4,0.5c0.1,0.1,0.2,0.2,0.2,0.4c0,0.1,0,0.2,0.1,0.3
			c0.1,0.2,0,0.3-0.1,0.4c-0.4,0.3-0.6,0.6-0.6,1.1c0,0.2-0.1,0.3-0.1,0.5c-0.1,0.2-0.2,0.3-0.4,0.3c-0.3-0.1-0.6-0.2-0.9-0.3
			c-0.1,0-0.2-0.1-0.2-0.2C106.5,26,106.4,25.8,106.1,25.8z"/>
		<path id="XMLID_1904_" class="st0" d="M118.2,20.3C118.2,20.3,118.2,20.3,118.2,20.3C118.2,20.3,118.2,20.3,118.2,20.3
			C118.2,20.2,118.2,20.2,118.2,20.3C118.2,20.3,118.2,20.3,118.2,20.3z"/>
		<path id="XMLID_10_" class="st0" d="M108.4,31.4c-0.1,0-0.1,0.1-0.1,0.1c0,0,0,0-0.1-0.1c0,0,0.1-0.1,0.1-0.1
			C108.3,31.3,108.3,31.3,108.4,31.4z"/>
	</g>
</g>
<text transform="matrix(1 0 0 1 135.0057 29.6751)" class="st2 st3 st4 st5">台味春聯框</text>
</svg>
